<svg id="Layer_1" data-name="Layer 1" xmlns="http://www.w3.org/2000/svg" xmlns:xlink="http://www.w3.org/1999/xlink" viewBox="0 0 320 214"><defs><linearGradient id="linear-gradient" x1="631.46" y1="1297.03" x2="631.71" y2="1297.03" gradientTransform="matrix(-91.54, 0, 0, 91.54, 57985.62, -118631.38)" gradientUnits="userSpaceOnUse"><stop offset="0" stop-color="#fff"/><stop offset="0" stop-color="#fff"/><stop offset="0.03" stop-color="#fcfcfc"/><stop offset="0.11" stop-color="#f1f1f1"/><stop offset="0.26" stop-color="#d4d4d4"/><stop offset="0.46" stop-color="#a4a4a4"/><stop offset="0.69" stop-color="#616161"/><stop offset="0.95" stop-color="#0e0e0e"/><stop offset="0.99"/><stop offset="1"/></linearGradient><clipPath id="clip-path"><rect x="226.41" y="189.4" width="39.71" height="3.52" fill="none"/></clipPath><clipPath id="clip-path-2"><rect x="240.6" y="178.79" width="4.51" height="4.45" fill="none"/></clipPath><clipPath id="clip-path-3"><rect x="212.27" y="101.56" width="11.14" height="11.14" fill="none"/></clipPath><clipPath id="clip-path-4"><rect x="203.21" y="105.94" width="29.27" height="2.48" fill="none"/></clipPath><clipPath id="clip-path-5"><path d="M191.12,93.55v27.16a1.13,1.13,0,0,0,1.13,1.13h51.19a1.13,1.13,0,0,0,1.13-1.13V93.86a1.13,1.13,0,0,0-1.12-1.13l-51.17-.3a1.17,1.17,0,0,0-1.16,1.12" fill="none"/></clipPath><clipPath id="clip-path-6"><rect x="184.61" y="87.3" width="35.11" height="44.34" fill="none"/></clipPath><clipPath id="clip-path-7"><rect x="214.32" y="71.2" width="1.76" height="0.73" fill="none"/></clipPath><clipPath id="clip-path-8"><rect x="195.6" y="91.33" width="23.21" height="29.33" fill="none"/></clipPath><clipPath id="clip-path-9"><rect x="157.72" y="7.82" width="23.58" height="185" fill="none"/></clipPath><clipPath id="clip-path-10"><polyline points="180.43 7.82 157.72 55.47 158.07 191.65 181.2 192.83 181.3 10.42" fill="none"/></clipPath><mask id="mask" x="157.72" y="7.82" width="23.58" height="185" maskUnits="userSpaceOnUse"><rect x="157.72" y="7.82" width="23.58" height="185" fill="url(#linear-gradient)"/></mask><clipPath id="clip-path-12"><polygon points="53.88 33.32 53.88 206.17 180.64 207.01 180.64 6.96 53.88 33.32" fill="none"/></clipPath><clipPath id="clip-path-13"><rect x="68.62" y="80.9" width="26.85" height="29.25" fill="none"/></clipPath><clipPath id="clip-path-14"><rect x="133.32" y="117.86" width="16.33" height="3.23" fill="none"/></clipPath><clipPath id="clip-path-15"><rect x="141" y="76.18" width="39.65" height="96.76" fill="none"/></clipPath><clipPath id="clip-path-16"><rect x="180.4" y="7.65" width="11.38" height="185" fill="none"/></clipPath><clipPath id="clip-path-17"><rect x="178.46" y="105.99" width="18.3" height="91.78" fill="none"/></clipPath></defs><title>RESIZED Homepage Dolller man</title><rect y="-0.02" width="320" height="214" fill="#fff" opacity="0"/><g opacity="0.2"><g clip-path="url(#clip-path)"><path d="M227.62,192.92h28.79a20.69,20.69,0,0,0,6.88-1.18l2.3-.81a.79.79,0,0,0-.26-1.53H234.27a21.68,21.68,0,0,0-6.4,1l-.61.19a1.21,1.21,0,0,0,.36,2.36"/></g></g><polygon points="244.65 191.7 248.31 191.7 247.89 190.62 244.22 190.78 244.65 191.7" fill="#444"/><polygon points="262.1 190.98 250.31 190.98 247.89 190.62 250.06 191.7 262.5 191.7 263.11 191.16 263.23 190.06 262.1 190.98" fill="#444"/><polygon points="262.1 190.98 263.23 190.06 259.18 189.55 250.26 185.86 247.73 183.53 246.14 182.99 242.89 184.12 241.52 185 244.22 190.78 247.89 190.62 250.31 190.98 262.1 190.98" fill="#8b8b8b"/><path d="M217.37,118.91l-9.57,29.18a7.37,7.37,0,0,1-3.37,4.11l-15.92,8.93V149.42l7.49-4,6.35-19.73-.92-9.53,17.19-4.44Z"/><path d="M239.64,178.6l2.93,6.4s2.66,0,3-.45a4.4,4.4,0,0,0,.55-1.56l-2.47-5.58Z" fill="#fff"/><g opacity="0.15"><g clip-path="url(#clip-path-2)"><path d="M244.47,179.22l.63,1.42s-.53,1.8-3.34,2.6l-1.16-2.56,3.42-1.89Z"/></g></g><path d="M245,178.87a9.73,9.73,0,0,1-6.13,1.93L210.9,117.49l13.91-2.84Z"/><path d="M217.62,110.15a33.36,33.36,0,0,1,.61-5.89c.5-1.56,2-7.92,2-7.92L236.8,103,240,98.76a55.12,55.12,0,0,0-5.08-3.35c-2.14-1.15-11.59-9.76-11.59-9.76l-1.09-1.22a1.9,1.9,0,0,0-.41-.34l-6.8-3.7-3,3-5.8-1.76-.9.52-6.18,2.85a4.57,4.57,0,0,0-2.63,4.55l1.36,15-1.85,8a19.05,19.05,0,0,0,1.79.75c.18,0,19.83-3.18,19.83-3.18" fill="#eaeaea"/><path d="M243.45,92.73l-51.17-.3a1.17,1.17,0,0,0-1.16,1.12v27.16a1.13,1.13,0,0,0,1.13,1.13h51.19a1.13,1.13,0,0,0,1.13-1.13V93.86a1.13,1.13,0,0,0-1.12-1.13" fill="#eaeaea"/><path d="M192.28,92.43a1.17,1.17,0,0,0-1.16,1.12v27.16a1.13,1.13,0,0,0,1.13,1.13h51.19a1.13,1.13,0,0,0,1.13-1.13V93.86a1.13,1.13,0,0,0-1.12-1.13l-51.17-.3" fill="#00cbc1"/><path d="M240.32,102.51a8.41,8.41,0,0,1-5.55-5.43.59.59,0,0,0-.55-.41H201.47a.59.59,0,0,0-.55.41,8.41,8.41,0,0,1-5.56,5.43.66.66,0,0,0-.47.62v8.13a.64.64,0,0,0,.48.62,8.45,8.45,0,0,1,5.58,5.31.6.6,0,0,0,.55.4h32.69a.58.58,0,0,0,.54-.4,8.49,8.49,0,0,1,5.59-5.31.64.64,0,0,0,.48-.62v-8.13a.66.66,0,0,0-.48-.62" fill="#00afa6"/><g opacity="0.8"><g clip-path="url(#clip-path-3)"><path d="M223.41,107.13a5.57,5.57,0,1,1-5.57-5.57,5.57,5.57,0,0,1,5.57,5.57" fill="#fff"/></g></g><g opacity="0.8"><g clip-path="url(#clip-path-4)"><path d="M232.48,107.18a1.24,1.24,0,1,1-1.24-1.24,1.23,1.23,0,0,1,1.24,1.24" fill="#fff"/><path d="M205.69,107.18a1.24,1.24,0,1,1-1.24-1.24,1.24,1.24,0,0,1,1.24,1.24" fill="#fff"/></g></g><g clip-path="url(#clip-path-5)"><g opacity="0.1"><g clip-path="url(#clip-path-6)"><path d="M197.37,87.3s-2.28,32.37,22.34,33.85l-31,10.49-4.1-44Z" fill="#231f20"/></g></g></g><path d="M205.76,74.35a53.18,53.18,0,0,1,1,6.51L212,83.44l2.22-2.8-1-4.78Z" fill="#fabe78"/><path d="M216.94,61.72a6.25,6.25,0,0,0,.51,1.92,2.28,2.28,0,0,1-.36,2.72c-.89.81-1.3-3.16-1.3-3.16Z" fill="#e05000"/><path d="M206.91,74.82h0l1,.12,6.06,4.24.3,1.46-.12,0a9.56,9.56,0,0,1-7.19-5.8"/><path d="M216.71,64.08a25.91,25.91,0,0,1,1.5,9c-.08,1.65-.38,4-1,4.62s-1.85,1.8-4.8.61-5.84-2.76-5.84-2.76l-.8-11.5,9.34-1.59,1.28.62Z" fill="#fabe78"/><path d="M202.27,69.59a22,22,0,0,0,.87,2.34c.49,1.15,2.84,1.86,2.84,1.86l.19,1.55v0a1.93,1.93,0,0,0,.92,1c1.37.67,4.58,2.23,5.82,2.62,1.6.51,4,.24,4.63-1a14.93,14.93,0,0,0,1-5.48c-.1-.92-.38-.86-.38-.86a3.05,3.05,0,0,0-.34.71,1,1,0,0,0-.74-.54,41.69,41.69,0,0,0-4.12.82,1.86,1.86,0,0,0-1.56,1.93,3.52,3.52,0,0,1-2.09.46,2.69,2.69,0,0,1-1.66-1.3,3.92,3.92,0,0,1-.27-1.46,21.56,21.56,0,0,0-.16-2.34c1.18-1.57.37-2.38-.25-3.1s-.21-1.37.92-1.24,4.59.78,6.56.23,1.66-1.45,2.2-1.68a4.35,4.35,0,0,0,.58-1.88,3.39,3.39,0,0,0-2.12-3.63c-1.47-.71-3.83-1.88-4.95-.61,0,0-5-1.88-6.8-1S202,60.4,202,60.4s-2.48.06-1.66,2.24a11.57,11.57,0,0,0,.75,1.91s.3.47,0,.63a.86.86,0,0,0-.17,1.41l1,.86s-2-.21-1.71.63,2.07,1.51,2.07,1.51" fill="#ff6400"/><path d="M203.79,71.9c1.11-.6,2,.91,2,.91l.15,1,.22,1.76c-.8.2-1.54-.73-2.09-1.35s-1.42-1.7-.32-2.3" fill="#fabe78"/><path d="M214.37,77.06c-.61.19-1.24-.45-1.33-.93s-.22-1.81.05-2a9.9,9.9,0,0,1,2.06-.49l1.58-.35a.24.24,0,0,1,.32.2,11,11,0,0,1,0,1.72,2.83,2.83,0,0,1-.3,1.2c-.15.17-.8.36-.84.22s.05-.82-.09-.9-.88.15-1.05.18.12.83.12.93-.19.1-.53.21" fill="#fabe78"/><path d="M216.52,74.11a.19.19,0,0,0-.22-.25l-1.05.28c-.3.08-1,.2-1.43.27a.19.19,0,0,0-.11.32,1.6,1.6,0,0,0,1.61.41,1.64,1.64,0,0,0,1.2-1" fill="#fff"/><g opacity="0.3"><g clip-path="url(#clip-path-7)"><path d="M214.35,71.81l.6-.34a1.13,1.13,0,0,1,.32-.13l.48-.13a.27.27,0,0,1,.33.18.15.15,0,0,1-.1.17l-1.58.37c-.07,0-.11-.09-.05-.12" fill="#1a1919"/></g></g><path d="M212,83.44v-.52l1.92-3.74,1.45.63a.46.46,0,0,1,.27.51L214.77,85a.22.22,0,0,1-.36.13l-2-1.74Z" fill="#eaeaea"/><g opacity="0.15"><g clip-path="url(#clip-path-8)"><path d="M203.93,92.6l.16-1.27,4.27,1.17h-2.58L204,106.71a.66.66,0,0,0,.26.64l14.58,11.56-1.31,1.75-18.75-8.31a3.88,3.88,0,0,1-3.1-4.43l2.47-16.25Z"/></g></g><path d="M212,83.44l-.43-.48-4.82-2.67-.06-.55-.17,0a.72.72,0,0,0-.48.35l-.87,1.52a.44.44,0,0,0,.13.56l5.44,3.87a.22.22,0,0,0,.34-.13l.41-2.38Z" fill="#eaeaea"/><path d="M198.38,85.39a4.57,4.57,0,0,0-2.6,3.44c-.74,4.74-2.25,15.14-3,19.93a3.67,3.67,0,0,0,1.9,3.76l18.95,10.14a1.55,1.55,0,0,0,2.09-.62l1.56-2.83a.42.42,0,0,0-.11-.54l-15-11.67a.12.12,0,0,1,0-.11l2-16L201,84.17Z" fill="#eaeaea"/><path d="M217.37,118.91h5l4.47,1.56a1.21,1.21,0,0,1,.81,1.15h4.42l-.89.52a1.23,1.23,0,0,1-.31.14l-3.24,1.1-1.94.45h-5l-5-1.7Z" fill="#fabe78"/><polygon points="250.63 191.7 251.75 191.38 250.21 190.62 250.63 191.7"/><path d="M231.67,92.68l1.94-1.82a2.64,2.64,0,0,1,1.47-.66l3.07-.34a2.59,2.59,0,0,1,2.31,1L242,92.68h-1.6L240.25,96a.41.41,0,0,1-.81.11l-.2-.64-.06.92a.55.55,0,0,1-.56.53h-.55l-.1.34a.65.65,0,0,1-1.2.13l-.1-.18h-.43a.69.69,0,0,1-.64-.41l-2-4.16Z" fill="#fabe78"/><path d="M240.37,92.76a.07.07,0,0,1-.07-.07l-.11-1.12a.06.06,0,0,1,.06-.08c.05,0,.08,0,.08.06l.11,1.13s0,.07-.06.08Z"/><path d="M239.24,95.58a.08.08,0,0,1-.07-.07L239,91.72a.08.08,0,0,1,.07-.08h0a.07.07,0,0,1,.07.07l.23,3.79a.08.08,0,0,1-.07.08Z"/><path d="M238.07,97S238,97,238,97l-.68-5.13a.08.08,0,0,1,.07-.08s.07,0,.08.06l.67,5.13s0,.08-.06.08Z"/><path d="M236.67,97.32a.08.08,0,0,1-.07,0l-1-5.13a.07.07,0,0,1,0-.09.08.08,0,0,1,.09.06l1,5.13a.06.06,0,0,1-.05.08Z"/><path d="M229.6,121.69c-1.84,0-3.88-.21-3.9-.21a.06.06,0,0,1-.06-.08s0-.06.07-.06h0s2.05.21,3.88.21h.4a.08.08,0,0,1,.08.07.09.09,0,0,1-.08.08Z"/><path d="M217.05,122.64s0-2.76,1-3.73h-.65l-1.73,3.33Z"/><g opacity="0.48"><g clip-path="url(#clip-path-9)"><g clip-path="url(#clip-path-10)"><g mask="url(#mask)"><g clip-path="url(#clip-path-9)"><rect x="181.25" y="7.82" width="0.05" height="185" fill="#e6e6e6"/><rect x="181.22" y="7.82" width="0.03" height="185" fill="#e6e6e6"/><rect x="181.18" y="7.82" width="0.03" height="185" fill="#e6e6e6"/><rect x="181.15" y="7.82" width="0.03" height="185" fill="#e5e5e5"/><rect x="181.12" y="7.82" width="0.03" height="185" fill="#e4e4e4"/><rect x="181.08" y="7.82" width="0.03" height="185" fill="#e3e3e4"/><rect x="181.05" y="7.82" width="0.03" height="185" fill="#e3e3e3"/><rect x="181.01" y="7.82" width="0.03" height="185" fill="#e2e2e2"/><rect x="180.98" y="7.82" width="0.03" height="185" fill="#e1e1e1"/><rect x="180.95" y="7.82" width="0.03" height="185" fill="#e0e0e0"/><rect x="180.91" y="7.82" width="0.03" height="185" fill="#dededf"/><rect x="180.88" y="7.82" width="0.03" height="185" fill="#ddddde"/><rect x="180.85" y="7.82" width="0.03" height="185" fill="#dcdcdd"/><rect x="180.81" y="7.82" width="0.03" height="185" fill="#dbdbdc"/><rect x="180.78" y="7.82" width="0.03" height="185" fill="#dadada"/><rect x="180.74" y="7.82" width="0.03" height="185" fill="#d8d8d9"/><rect x="180.71" y="7.82" width="0.03" height="185" fill="#d7d7d8"/><rect x="180.68" y="7.82" width="0.03" height="185" fill="#d6d6d7"/><rect x="180.64" y="7.82" width="0.03" height="185" fill="#d4d4d5"/><rect x="180.61" y="7.82" width="0.03" height="185" fill="#d3d3d4"/><rect x="180.09" y="7.82" width="0.52" height="185" fill="#d3d3d4"/><rect x="179.57" y="7.82" width="0.52" height="185" fill="#d3d3d4"/><rect x="179.06" y="7.82" width="0.52" height="185" fill="#d4d4d5"/><rect x="178.54" y="7.82" width="0.52" height="185" fill="#d4d4d5"/><rect x="178.03" y="7.82" width="0.52" height="185" fill="#d5d5d6"/><rect x="177.51" y="7.82" width="0.52" height="185" fill="#d6d6d7"/><rect x="176.99" y="7.82" width="0.52" height="185" fill="#d7d7d7"/><rect x="176.48" y="7.82" width="0.52" height="185" fill="#d7d7d8"/><rect x="175.96" y="7.82" width="0.52" height="185" fill="#d8d8d9"/><rect x="175.44" y="7.82" width="0.52" height="185" fill="#d9d9da"/><rect x="174.93" y="7.82" width="0.52" height="185" fill="#dadadb"/><rect x="174.41" y="7.82" width="0.52" height="185" fill="#dbdbdb"/><rect x="173.89" y="7.82" width="0.52" height="185" fill="#dcdcdc"/><rect x="173.38" y="7.82" width="0.52" height="185" fill="#dcdcdd"/><rect x="172.86" y="7.82" width="0.52" height="185" fill="#ddddde"/><rect x="172.34" y="7.82" width="0.52" height="185" fill="#dededf"/><rect x="171.83" y="7.82" width="0.52" height="185" fill="#dfdfe0"/><rect x="171.31" y="7.82" width="0.52" height="185" fill="#e0e0e1"/><rect x="170.79" y="7.82" width="0.52" height="185" fill="#e1e1e2"/><rect x="170.28" y="7.82" width="0.52" height="185" fill="#e2e2e3"/><rect x="169.76" y="7.82" width="0.52" height="185" fill="#e3e3e4"/><rect x="169.24" y="7.82" width="0.52" height="185" fill="#e5e5e5"/><rect x="168.73" y="7.82" width="0.52" height="185" fill="#e6e6e6"/><rect x="168.21" y="7.82" width="0.52" height="185" fill="#e7e7e7"/><rect x="167.7" y="7.82" width="0.52" height="185" fill="#e8e8e8"/><rect x="167.18" y="7.82" width="0.52" height="185" fill="#e9e9e9"/><rect x="166.66" y="7.82" width="0.52" height="185" fill="#eaeaeb"/><rect x="166.15" y="7.82" width="0.52" height="185" fill="#ebebec"/><rect x="165.63" y="7.82" width="0.52" height="185" fill="#ececed"/><rect x="165.11" y="7.82" width="0.52" height="185" fill="#eee"/><rect x="164.6" y="7.82" width="0.52" height="185" fill="#efefef"/><rect x="164.08" y="7.82" width="0.52" height="185" fill="#f0f0f0"/><rect x="163.56" y="7.82" width="0.52" height="185" fill="#f1f1f1"/><rect x="163.05" y="7.82" width="0.52" height="185" fill="#f2f2f3"/><rect x="162.53" y="7.82" width="0.52" height="185" fill="#f4f4f4"/><rect x="162.01" y="7.82" width="0.52" height="185" fill="#f5f5f5"/><rect x="161.5" y="7.82" width="0.52" height="185" fill="#f6f6f6"/><rect x="160.98" y="7.82" width="0.52" height="185" fill="#f7f7f7"/><rect x="160.46" y="7.82" width="0.52" height="185" fill="#f9f9f9"/><rect x="159.95" y="7.82" width="0.52" height="185" fill="#fafafa"/><rect x="159.43" y="7.82" width="0.52" height="185" fill="#fbfbfb"/><rect x="158.91" y="7.82" width="0.52" height="185" fill="#fcfcfc"/><rect x="158.4" y="7.82" width="0.52" height="185" fill="#fefefe"/><rect x="157.88" y="7.82" width="0.52" height="185" fill="#fff"/><rect x="157.72" y="7.82" width="0.16" height="185" fill="#fff"/></g></g></g></g></g><path d="M180.9,192.71H74a26.8,26.8,0,0,1-8.87-1.52l-3-1a1,1,0,0,1,.33-2H180.9Z" fill="#cecece"/><g clip-path="url(#clip-path-12)"><path d="M80.83,163.48a26.09,26.09,0,1,0,26.08-26.08,26.08,26.08,0,0,0-26.08,26.08" fill="#010000"/><polygon points="84.91 166.79 88.96 169.37 146.21 170.82 297.07 173.61 354.31 173.61 360.38 155.15 342.34 127.11 320.42 127.11 86.97 123.48 84.91 166.79" fill="#100f0f"/><path d="M58.23,142.09l5.63-3.84V122.66a27.24,27.24,0,0,1,4.76-12.52h9.32a7.39,7.39,0,0,0,7.15-5.55l4.79-18.83-.94-3.48a2.2,2.2,0,0,1,2-2.77c12.93-.5,68.85-2.66,112.14-4.09A111.37,111.37,0,0,1,250,84.08h-.59a.84.84,0,0,0-.38,1.59l48.18,24.24c1.37.69-.17,38.89-.17,54.5V175l-150.86-2.6v-7.67A28.63,28.63,0,1,0,89,164.41v6c-17,0-25.56-4.54-29.44-7.68a5.15,5.15,0,0,1-1.51-6l-1.12-11.82a3.07,3.07,0,0,1,1.34-2.85" fill="#fff"/><path d="M149,157.27c0-11.8-14.52-26.57-32.54-26.57a28.84,28.84,0,0,0-25.28,13.87H72.64l-12.21-1.11a3.09,3.09,0,0,0-3.36,3.38l.94,9.92a5.15,5.15,0,0,0,1.51,6C63.4,165.91,72,170.45,89,170.45v-6a28.63,28.63,0,0,1,28-28.62c16.06-.32,29.21,13.08,29.21,29.15v7.41l34.44.59V157.27Z" fill="#b7b7b7"/><path d="M91.91,89.92,81,105.6a5.42,5.42,0,0,1-4.44,2.32H70.13c6.09-8.51,19.75-22.16,19.75-22.16L91.48,87a2.13,2.13,0,0,1,.43,2.9" fill="#1a1919"/><g opacity="0.37"><g clip-path="url(#clip-path-13)"><path d="M86,106.13a8.09,8.09,0,0,1-7,4H68.62l.11-.15c.4-.64.87-1.34,1.4-2.07h6.39A5.42,5.42,0,0,0,81,105.6l11-15.68a2.13,2.13,0,0,0-.43-2.9l-1.6-1.26L89,82.49a1.26,1.26,0,0,1,1.83-1.43l.89.49a7.28,7.28,0,0,1,2.77,10Z" fill="#cecece"/></g></g><path d="M119.71,103.34l5.38-11.13a18.49,18.49,0,0,1,14.77-10.35l3,29.26-19-.76a4.9,4.9,0,0,1-4.22-7" fill="#1a1919"/><polygon points="197.35 80.57 207.31 113.71 194.19 113.18 189.27 80.74 197.35 80.57" fill="#0188d6"/><polygon points="189.27 80.74 194.19 113.18 145.08 111.21 142.41 81.74 189.27 80.74" fill="#1a1919"/><path d="M141.34,81.76l1.07,0,2.67,29.47-2.17-.09-3-29.26c.49,0,1-.09,1.48-.1" fill="#b7b7b7"/><g opacity="0.37"><g clip-path="url(#clip-path-14)"><path d="M139.54,118.43h0A17.81,17.81,0,0,0,144,119h4.63a1.05,1.05,0,0,1,0,2.1H134.94a1.62,1.62,0,1,1,0-3.23h.17a17.48,17.48,0,0,1,4.43.57" fill="#cecece"/></g></g><path d="M69.17,113.44H79.68a2.3,2.3,0,0,1,1.92,1l6,9.15a2.29,2.29,0,0,1-1.91,3.54H69.28v0l-.11,0c-1.37,0-2.47-3.07-2.47-6.87s1.1-6.86,2.47-6.86" fill="#1a1919"/><path d="M72.49,120.24c0,2.12.48,3.84,1.07,3.84s1.08-1.72,1.08-3.84-.48-3.83-1.08-3.83-1.07,1.72-1.07,3.83" fill="#fff"/><path d="M67.89,120.24c0,2.85.83,5.16,1.85,5.16s1.85-2.31,1.85-5.16-.83-5.15-1.85-5.15-1.85,2.31-1.85,5.15" fill="#fff"/></g><g opacity="0.42"><g clip-path="url(#clip-path-15)"><path d="M168.39,158.91,149.33,87.47a15.09,15.09,0,0,0-8.09-9.74l-.24-.12,39.65-1.43-.13,96.76-34.31-.59v-3.18l14.73-.33a7.9,7.9,0,0,0,7.45-9.93"/></g></g><rect x="180.52" y="7.82" width="11.38" height="185" fill="#ff6400"/><g clip-path="url(#clip-path-16)"><g opacity="0.12"><g clip-path="url(#clip-path-17)"><path d="M178.46,154.49S188,144.9,193.18,106l3.58,91.78h-18.3Z"/></g></g></g><path d="M91.28,165.45a26.08,26.08,0,1,0,26.08-26.08,26.08,26.08,0,0,0-26.08,26.08" fill="#231f20"/><path d="M98.23,165.45a19.13,19.13,0,1,0,19.13-19.13,19.13,19.13,0,0,0-19.13,19.13M104.86,155a16.38,16.38,0,0,1,2-2,1.28,1.28,0,0,1,1.93.36l3.78,6.52a.64.64,0,0,1-.87.87l-6.52-3.78a1.28,1.28,0,0,1-.36-1.93M116,181.68a1.28,1.28,0,0,1-1.15-1.61l1.93-7.29a.64.64,0,0,1,1.23,0l1.94,7.29a1.29,1.29,0,0,1-1.15,1.61,14,14,0,0,1-2.8,0m-1.15-30.85a1.29,1.29,0,0,1,1.15-1.62c.46,0,.92-.07,1.4-.07s.94,0,1.4.07a1.3,1.3,0,0,1,1.15,1.62L118,158.12a.64.64,0,0,1-1.23,0Zm11.08,2.48a1.28,1.28,0,0,1,1.93-.36,16.3,16.3,0,0,1,2,2,1.29,1.29,0,0,1-.35,1.93L123,160.7a.64.64,0,0,1-.87-.87Zm7.7,13.54A1.29,1.29,0,0,1,132,168l-7.29-1.94a.64.64,0,0,1,0-1.23l7.29-1.94a1.29,1.29,0,0,1,1.61,1.15,13.18,13.18,0,0,1,.07,1.41,13,13,0,0,1-.07,1.4m-3.74,9.06a16.92,16.92,0,0,1-2,2,1.29,1.29,0,0,1-1.93-.35l-3.78-6.52a.64.64,0,0,1,.87-.87L129.5,174a1.29,1.29,0,0,1,.35,1.93m-21,1.68a1.29,1.29,0,0,1-1.93.35,17,17,0,0,1-2-2,1.28,1.28,0,0,1,.36-1.93l6.52-3.78a.64.64,0,0,1,.87.87ZM102.74,168a1.3,1.3,0,0,1-1.62-1.15c0-.46-.06-.93-.06-1.4s0-.94.06-1.41a1.31,1.31,0,0,1,1.62-1.15l7.29,1.94a.64.64,0,0,1,0,1.23Z" fill="#dcdcdc"/></svg>