<svg xmlns="http://www.w3.org/2000/svg" xmlns:xlink="http://www.w3.org/1999/xlink" viewBox="0 0 320 214"><defs><linearGradient id="linear-gradient" x1="213.53" y1="1067" x2="214.07" y2="1067" gradientTransform="matrix(0, -145.54, -145.54, 0, 155468.31, 31150.77)" gradientUnits="userSpaceOnUse"><stop offset="0" stop-color="#fff"/><stop offset="0" stop-color="#fff"/><stop offset="0.03" stop-color="#fcfcfc"/><stop offset="0.11" stop-color="#f1f1f1"/><stop offset="0.26" stop-color="#d4d4d4"/><stop offset="0.46" stop-color="#a4a4a4"/><stop offset="0.69" stop-color="#616161"/><stop offset="0.95" stop-color="#0e0e0e"/><stop offset="0.99"/><stop offset="1"/></linearGradient><linearGradient id="linear-gradient-3" x1="204.41" y1="1060.72" x2="204.96" y2="1060.72" gradientTransform="matrix(-82.94, 89.81, 310.36, 94.41, -312130.46, -118340.1)" xlink:href="#linear-gradient"/><clipPath id="clip-path"><path d="M143.37,58.24a44.22,44.22,0,1,0,88.28,5.32l1.22.08-1.22-.08a44.27,44.27,0,0,0-41.48-46.8c-.9-.05-1.8-.08-2.69-.08a44.27,44.27,0,0,0-44.11,41.56" fill="none"/></clipPath><clipPath id="clip-path-2"><rect x="200.69" y="33.44" width="32.03" height="16.54" fill="none"/></clipPath><clipPath id="clip-path-3"><rect x="164.95" y="52.2" width="14.45" height="7.59" fill="none"/></clipPath><clipPath id="clip-path-4"><path d="M143.37,58.24a43.84,43.84,0,0,0,6.78,26.34c-12.31-22.49,3.34-49.47,20.76-58.31,20.67-10.48,38.45-2.8,46.32,1.91a44.05,44.05,0,0,0-27.06-11.42c-.9-.05-1.8-.08-2.69-.08a44.27,44.27,0,0,0-44.11,41.56" fill="none"/></clipPath><mask id="mask" x="103.44" y="-23.91" width="148.18" height="148.18" maskUnits="userSpaceOnUse"><rect x="125.14" y="-2.2" width="104.78" height="104.78" transform="translate(16.51 140.23) rotate(-45)" fill="url(#linear-gradient)"/></mask><clipPath id="clip-path-5"><rect x="125.14" y="-2.2" width="104.78" height="104.78" transform="translate(16.51 140.23) rotate(-45)" fill="none"/></clipPath><clipPath id="clip-path-6"><path d="M148.62,97.66l-8.75,9.49-16.61,19.54,9.18,12.4,14.3-11.74,11-18.63,1.72-2a2,2,0,0,0-.25-2.87l-7.8-6.4a2,2,0,0,0-2.76.19" fill="none"/></clipPath><clipPath id="clip-path-7"><rect x="134.14" y="99.61" width="30.69" height="41" fill="none"/></clipPath><clipPath id="clip-path-8"><path d="M156.23,99.61s3.09,7.71-14.88,17.85c-9.31,5.26-6.94,15.65-6.94,15.65l7.05,7.5,15.65-19.4,7.72-13.66Z" fill="none"/></clipPath><clipPath id="clip-path-9"><rect x="132.04" y="99.61" width="32.79" height="41" fill="none"/></clipPath><clipPath id="clip-path-10"><polygon points="151.78 98.65 157.77 103.73 161.33 99.52 155.26 94.44 151.78 98.65" fill="none"/></clipPath><clipPath id="clip-path-11"><rect x="153.42" y="91.23" width="11.74" height="12.9" fill="none"/></clipPath><clipPath id="clip-path-14"><polygon points="177.53 124.28 103.44 50.19 151.78 1.84 203.83 2.4 251.62 50.19 177.53 124.28" fill="none"/></clipPath><clipPath id="clip-path-15"><path d="M84,168.26a10.43,10.43,0,0,0-6.48,2.47l-.25.25C74.68,173.57,61,189.9,56.16,200l53.39,12.76c4.65-9.26,10.8-26.28,11.23-28.44a2.6,2.6,0,0,0,0-.5,3.79,3.79,0,0,0-1.39-2.89A56,56,0,0,0,84.8,168.25H84" fill="none"/></clipPath><mask id="mask-3" x="24.07" y="152.89" width="128.84" height="75.22" maskUnits="userSpaceOnUse"><polygon points="152.91 178.01 106.64 228.11 24.07 203 70.34 152.89 152.91 178.01" fill="url(#linear-gradient-3)"/></mask><clipPath id="clip-path-16"><polygon points="152.91 178.01 106.64 228.11 24.07 203 70.34 152.89 152.91 178.01" fill="none"/></clipPath><clipPath id="clip-path-17"><path d="M133,91.8a10.79,10.79,0,0,0-2.13,2.49s-7.89.85-10.59,3.45a12.43,12.43,0,0,0-1.81,2.52,19.64,19.64,0,0,0-10.6,4.24,7.37,7.37,0,0,0-1.26,1.23,11.8,11.8,0,0,0-3.46.72,11,11,0,0,0-5.38,4.69l-6.56,11.12a22,22,0,0,0-3,10.38l-2.39,31.15a3.77,3.77,0,0,1-.33,1.4l-1.38,3.06a55.94,55.94,0,0,1,35.24,12.6l2.11-4.87a5.34,5.34,0,0,1,2-2.39c3.11-2,8.83-6.26,11.28-9.51,2.88-3.8,18.29-27.46,21.86-34.37A159.23,159.23,0,0,0,165,108.34a.94.94,0,0,0-.39-1c-6.66-4.6-15.72,11.19-17.49,14.43a3,3,0,0,1-.73.9,111.15,111.15,0,0,0-8,8.56l.08-.67c.42-3.25,1.9-17.05,2.07-18.49s.48-6.1.48-6.1l6.68-7.24c-4.73-6.12-8.18-8.11-10.94-8.11A6.68,6.68,0,0,0,133,91.8" fill="none"/></clipPath><clipPath id="clip-path-18"><rect x="109.94" y="152.29" width="33.17" height="32.95" fill="none"/></clipPath><clipPath id="clip-path-19"><rect x="140.95" y="101" width="3.39" height="5.37" fill="none"/></clipPath></defs><title>Illustrations RESIZE Homepage</title><g style="isolation:isolate"><g id="Layer_1" data-name="Layer 1"><rect width="320" height="214" fill="#fff" opacity="0"/><g clip-path="url(#clip-path)"><path d="M159.58,62.86l3-6.56a.44.44,0,0,0-.39-.62h-.92a1.72,1.72,0,0,0-1.72,1.74Z" fill="#141414"/><path d="M159.85,72.31h-.12a2.57,2.57,0,0,0,0-.5,1.94,1.94,0,0,0-.18-.53,2.06,2.06,0,0,0-1.05-.94.87.87,0,0,1-.5-.8v-4.8a1.4,1.4,0,0,1,.39-1l.87-.92.39-.41.11.41c.45,1.84,2.13,9.17.14,9.45" fill="#eff1f2"/><rect x="171" y="53.4" width="36.66" height="23.61" fill="#1c1c1c"/><path d="M306.25,66.49v2.22l-2.65,5.43a3,3,0,0,1-1.83,1.55l-9.44,2.76h-.27a.78.78,0,0,1-.75-1h0a14.39,14.39,0,0,0,.37-3.37,14,14,0,0,0-2.37-7.62,14.07,14.07,0,0,0-25.81,7.79v.15a13.82,13.82,0,0,0,.36,3,.8.8,0,0,1-.79,1H204.82a.53.53,0,0,1-.52-.63,14.68,14.68,0,0,0,.23-2.59c0-.27,0-.53,0-.8A14.83,14.83,0,1,0,175,77.18a1.12,1.12,0,0,1-1.11,1.27H158.73l.2-3.55.08-1.62.88-.88,0-.09-.17-.49-.18-.53-.33-.94.41-7.49,0-.41s.6-3.62,1.19-5.71a8,8,0,0,1,.38-1.08c10.17-8.26,29.92-8.52,29.92-8.52l1.68-.84,27.89-13.95s2.89-1.55,10.87-2.52a120.64,120.64,0,0,1,14.53-.78c17.71,0,41.29,4.53,44.89,5.24a.53.53,0,0,1,.43.53v0a.54.54,0,0,1-.42.49l-8.75,1.87a1.46,1.46,0,0,0-.11,2.72l15.23,6.66a3.16,3.16,0,0,1,1.81,2.15l2.5,10.13v2.36a4.15,4.15,0,0,0,2.88,4l1,.32a1,1,0,0,1,.71,1" fill="#0db8d7"/><path d="M306.25,66.49v2.22l-2.65,5.43a3,3,0,0,1-1.83,1.55l-9.44,2.76h-.27a.78.78,0,0,1-.75-1h0a14.39,14.39,0,0,0,.37-3.37,14.09,14.09,0,1,0-27.82,3.36.8.8,0,0,1-.79,1H204.82a.53.53,0,0,1-.52-.63,14.68,14.68,0,0,0,.23-2.59A14.83,14.83,0,0,0,189.66,60.4l-.53-3.15s28.05-5.35,95.37-8.68l2.87-.65s6.53.26,7.74,2.52,6.36,8.25,6.52,8.43h0v2.36a4.15,4.15,0,0,0,2.88,4l1,.32a1,1,0,0,1,.71,1" fill="#0686b6"/><path d="M306.25,66.49v2.22l-2.65,5.43a3,3,0,0,1-1.83,1.55l-9.44,2.76h-.27a.78.78,0,0,1-.75-1h0a14.39,14.39,0,0,0,.37-3.37,14.09,14.09,0,1,0-27.82,3.36.8.8,0,0,1-.79,1H204.82a.53.53,0,0,1-.52-.63,14.68,14.68,0,0,0,.23-2.59A14.83,14.83,0,0,0,189.66,60.4l-.53-3.15s28.05-5.35,95.37-8.68l2.87-.65s6.53.26,7.74,2.52,6.36,8.25,6.52,8.43h0v2.36a4.15,4.15,0,0,0,2.88,4l1,.32a1,1,0,0,1,.71,1" fill="#0db8d7"/><path d="M195.7,46.82a42.75,42.75,0,0,1-6.44,2.93c-4.67,1.29-26,6.39-28.47,7a8,8,0,0,1,.38-1.08c10.17-8.26,29.92-8.52,29.92-8.52s3.18.26,4.61-.32" fill="#0db8d7"/><path d="M244.45,32.13s-2.64,24.87-3.94,38c-.2,2-.37,3.8-.5,5.15H207.4c-.31-1.41-.59-2.76-.84-4.08-2.27-12.08-1.83-20.43,1.11-29a2.42,2.42,0,0,1,1-1.24A68.54,68.54,0,0,1,226.2,33a9,9,0,0,1,1.7-.33,148.82,148.82,0,0,1,16.55-.57" fill="#0db8d7"/><path d="M244.45,32.13s-1,9.06-2,19.1c-8.67.57-27.15,2.46-37.25,3.67a46.07,46.07,0,0,1,2.48-12.71,2.42,2.42,0,0,1,1-1.24A68.54,68.54,0,0,1,226.2,33a9,9,0,0,1,1.7-.33,148.82,148.82,0,0,1,16.55-.57" fill="#0db8d7"/><path d="M240.51,70.17c-.2,2-.37,3.81-.5,5.15H207.4c-.31-1.41-.59-2.76-.84-4.08Z" fill="#0db8d7"/><path d="M172,72.45l-6.57,2.24-6.45.21.08-1.62.88-.88,0-.09h-.12a2.57,2.57,0,0,0,0-.5l-.18-.53a2.06,2.06,0,0,0-1.05-.94.87.87,0,0,1-.5-.79V64.75a1.4,1.4,0,0,1,.39-1l.21-.22a2.19,2.19,0,0,1,1.61-.7h3.45a3.89,3.89,0,0,1,3.27,1.78Z" fill="#0fa6ce"/><path d="M168.71,69.64l-3-4.72a1.54,1.54,0,0,0-1.48-.71l-3.35.4a1.24,1.24,0,0,0-1,1.75l.68,1.48a1.21,1.21,0,0,0,1,.69c1.38.16,4.53.66,6.06,2a.7.7,0,0,0,.48.18h0a.72.72,0,0,0,.59-1.11" fill="#0f3a4a"/><path d="M166.21,68.21l-1.74-2.74a.9.9,0,0,0-.86-.41l-1.94.24a.71.71,0,0,0-.56,1l.39.86a.73.73,0,0,0,.56.4,7.16,7.16,0,0,1,3.51,1.18.42.42,0,0,0,.28.1h0a.42.42,0,0,0,.35-.64" fill="#141414"/><path d="M189.35,57.27A18.06,18.06,0,0,0,172,72.45a16.69,16.69,0,0,0-.2,2.13,18.3,18.3,0,0,0,.27,3.87h1.88A1.1,1.1,0,0,0,175,77.19a15.11,15.11,0,0,1-.12-1.92,14.3,14.3,0,0,1,.24-2.71,14.87,14.87,0,0,1,29.42,2.67,14.43,14.43,0,0,1-.24,2.65.48.48,0,0,0,.47.57h2.61a18,18,0,0,0-18-21.18" fill="#141414"/><path d="M240.8,33.28l-3,14.88c-7.23.58-14.41,1-20.66,1.33l-3.2.16c-5.24.25-9.61.42-12.5.51a1.25,1.25,0,0,1-.79-2.24,94,94,0,0,1,14.51-9.13,55.62,55.62,0,0,1,10.18-4,42.65,42.65,0,0,1,6.84-1.17,83.26,83.26,0,0,1,8.62-.34" fill="#141414"/><g opacity="0.1"><g clip-path="url(#clip-path-2)"><path d="M232.71,33.44a4.91,4.91,0,0,0-1.24.85c-2.28,2.08-.85,3.65-3.12,5.72s-3.71.52-6,2.6-.84,3.64-3.12,5.72l-.06.05a3.86,3.86,0,0,1-2.41,1l-2.3.11c-5.24.25-9.61.42-12.5.51a1.25,1.25,0,0,1-.8-2.24,94.5,94.5,0,0,1,14.51-9.13,55.44,55.44,0,0,1,10.19-4,42.72,42.72,0,0,1,6.83-1.17" fill="#fff"/></g></g><path d="M215.69,38.61l-1.21,10.86c-5.24.25-9.61.42-12.5.51a1.25,1.25,0,0,1-.8-2.24,94.5,94.5,0,0,1,14.51-9.13" fill="#0db8d7"/><path d="M213.63,39.68c-.17,1.29-.59,4.82-1,9.88-4.43.2-8.14.34-10.68.42a1.25,1.25,0,0,1-.8-2.24,98,98,0,0,1,12.45-8.06" fill="#fff"/><path d="M201.93,50.11a1.35,1.35,0,0,1-1.29-.91,1.37,1.37,0,0,1,.47-1.57,98,98,0,0,1,12.46-8.07l.22-.12,0,.25c-.17,1.28-.59,4.8-1,9.88v.11h-.12c-3.54.16-7,.3-10.68.42Zm11.54-10.2a97.86,97.86,0,0,0-12.21,7.93,1.13,1.13,0,0,0-.38,1.27,1.1,1.1,0,0,0,1.09.74c3.6-.12,7.06-.26,10.57-.42C212.89,44.71,213.29,41.35,213.47,39.91Z" fill="#231f20"/><path d="M213.63,39.68c-.17,1.29-.59,4.82-1,9.88-4.43.2-8.14.34-10.68.42a1.25,1.25,0,0,1-.8-2.24,98,98,0,0,1,12.45-8.06" fill="#141414"/><path d="M212.63,49.66v-.13a.47.47,0,0,1,.36-.43l.93-.24a1.38,1.38,0,0,0,1-1.12,7.29,7.29,0,0,0,0-2,2.21,2.21,0,0,0-2.46-2c-1.15,0-4.09,1.79-4.09,5.4v.6Z" fill="#0fa6ce"/><path d="M231.53,29.83h0c0,1-.59,1.45-1.63,1.56a26,26,0,0,0-3.39.61c-7.39,1.64-23.17,10.64-30.81,14.82a3.52,3.52,0,0,1-1.8.43l-2.81-.11,29.57-14.79s2.89-1.55,10.87-2.52" fill="#141414"/><path d="M179.27,53.48a13.1,13.1,0,0,1-7.56,5.4,30.74,30.74,0,0,1-6.76.91.35.35,0,0,1-.33-.23l-.93-2.81a1.13,1.13,0,0,1,.72-1.43,76,76,0,0,1,12.07-2.87c.67-.1,1.35-.18,2-.24a.83.83,0,0,1,.78,1.27" fill="#141414"/><path d="M238.26,52.74l-5.9.45a.72.72,0,0,1-.77-.66v-.14a.72.72,0,0,1,.66-.77l5.9-.44a.72.72,0,0,1,.77.66V52a.72.72,0,0,1-.66.77" fill="#7f0b4f"/><path d="M208.44,49.71c0,.91,0,1.8,0,2.32a.66.66,0,0,0,.66.68h2.74a.66.66,0,0,0,.67-.62l.15-2.5Z" fill="#141414"/><g opacity="0.1"><g clip-path="url(#clip-path-3)"><path d="M179.27,53.48a13.1,13.1,0,0,1-7.56,5.4,30.74,30.74,0,0,1-6.76.91c11.22-1.91,11.44-7.26,11.44-7.26l.09-.08c.67-.1,1.35-.18,2-.24a.83.83,0,0,1,.78,1.27" fill="#fff"/></g></g><path d="M263.07,78.45H204.82a.53.53,0,0,1-.52-.63,14.68,14.68,0,0,0,.23-2.59c0-.27,0-.53,0-.8h59a13.82,13.82,0,0,0,.36,3,.8.8,0,0,1-.79,1" fill="#141414"/><path d="M175,77.19a1.1,1.1,0,0,1-1.09,1.26H159.06a1.56,1.56,0,0,1-1.55-1.75l.4-3.39a1,1,0,0,1,1-.86h16.23v.11a14.3,14.3,0,0,0-.24,2.71,15.11,15.11,0,0,0,.12,1.92" fill="#141414"/><path d="M169.58,56.11a1.65,1.65,0,1,0,1.25-2,1.65,1.65,0,0,0-1.25,2" fill="#0f3a4a"/><path d="M166.38,57.68a.93.93,0,0,0,1.12.7.93.93,0,1,0-.42-1.82.93.93,0,0,0-.7,1.12" fill="#eff1f2"/><path d="M165.7,57.59a1,1,0,1,0,.73-1.15,1,1,0,0,0-.73,1.15" fill="#eff1f2"/></g><g clip-path="url(#clip-path-4)"><g mask="url(#mask)"><g clip-path="url(#clip-path-5)"><path d="M245,15.8,136.5,124.27H251.62V19.44A23.51,23.51,0,0,1,245,15.8Z" fill="#e6e6e6"/><path d="M244.84,15.7,136.26,124.27h.24L245,15.8Z" fill="#e6e6e6"/><path d="M244.75,15.63,136.1,124.27h.16L244.84,15.7Z" fill="#e6e6e6"/><path d="M244.66,15.56,135.94,124.27h.16L244.75,15.63Z" fill="#e6e6e6"/><path d="M244.57,15.49,135.78,124.27h.16L244.66,15.56Z" fill="#e5e5e5"/><path d="M244.48,15.42,135.62,124.27h.16L244.57,15.49Z" fill="#e4e4e4"/><path d="M244.39,15.35,135.46,124.27h.16L244.48,15.42Z" fill="#e3e3e4"/><path d="M244.25,15.32l-108.95,109h.16L244.39,15.35h0Z" fill="#e3e3e3"/><path d="M244.11,15.3l-109,109h.17l109-108.95Z" fill="#e2e2e2"/><path d="M244,15.28l-109,109h.16l109-109Z" fill="#e1e1e1"/><path d="M243.83,15.26l-109,109H135l109-109Z" fill="#e0e0e0"/><path d="M243.69,15.24l-109,109h.16l109-109Z" fill="#dededf"/><path d="M243.55,15.22,134.49,124.27h.16l109-109Z" fill="#ddddde"/><path d="M243.41,15.2,134.33,124.27h.16l109.06-109Z" fill="#dcdcdd"/><path d="M243.27,15.18,134.17,124.27h.16L243.41,15.2Z" fill="#dbdbdc"/><path d="M243.12,15.16,134,124.27h.16L243.27,15.18Z" fill="#dadada"/><path d="M243,15.14,133.85,124.27H134L243.12,15.16Z" fill="#d8d8d9"/><path d="M242.84,15.12,133.68,124.27h.17L243,15.14Z" fill="#d7d7d8"/><path d="M242.7,15.1,133.52,124.27h.16L242.84,15.12Z" fill="#d6d6d7"/><path d="M242.56,15.08,133.36,124.27h.16L242.7,15.1Z" fill="#d4d4d5"/><path d="M242.42,15.06,133.2,124.27h.16L242.56,15.08Z" fill="#d3d3d4"/><path d="M240.23,14.79,130.75,124.27h2.45L242.42,15.06Q241.33,14.91,240.23,14.79Z" fill="#d3d3d4"/><path d="M238,14.55,128.29,124.27h2.46L240.23,14.79C239.5,14.7,238.76,14.62,238,14.55Z" fill="#d3d3d4"/><path d="M235.81,14.31l-110,110h2.45L238,14.55Z" fill="#d4d4d5"/><path d="M233.6,14.06,123.39,124.27h2.45l110-110Z" fill="#d4d4d5"/><path d="M231.43,13.78,120.93,124.27h2.46L233.6,14.06Z" fill="#d5d5d6"/><path d="M229.3,13.46,118.48,124.27h2.45L231.43,13.78C230.71,13.68,230,13.58,229.3,13.46Z" fill="#d6d6d7"/><path d="M227.23,13.07,116,124.27h2.45L229.3,13.46Q228.25,13.28,227.23,13.07Z" fill="#d7d7d7"/><path d="M225.24,12.61,113.57,124.27H116l111.2-111.2C226.56,12.93,225.9,12.78,225.24,12.61Z" fill="#d7d7d8"/><path d="M223.87,12.23l-.54-.17L111.12,124.27h2.45L225.24,12.61Z" fill="#d8d8d9"/><path d="M221.45,11.49,108.67,124.27h2.45L223.33,12.06Z" fill="#d9d9da"/><path d="M219.57,10.92,106.21,124.27h2.46L221.45,11.49Z" fill="#dadadb"/><path d="M217.67,10.36,103.76,124.27h2.45L219.57,10.92Z" fill="#dbdbdb"/><path d="M215.75,9.83,103.44,122.14v2.13h.32L217.67,10.36Z" fill="#dcdcdc"/><path d="M213.79,9.34,103.44,119.69v2.45L215.75,9.83C215.1,9.66,214.44,9.49,213.79,9.34Z" fill="#dcdcdd"/><path d="M211.77,8.91,103.44,117.23v2.46L213.79,9.34C213.12,9.18,212.44,9,211.77,8.91Z" fill="#ddddde"/><path d="M209.67,8.55,103.44,114.78v2.45L211.77,8.91C211.07,8.78,210.38,8.65,209.67,8.55Z" fill="#dededf"/><path d="M207.47,8.3l-104,104v2.45L209.67,8.55C209,8.45,208.21,8.36,207.47,8.3Z" fill="#dfdfe0"/><path d="M205.14,8.18,103.44,109.87v2.46l104-104C206.71,8.23,205.93,8.2,205.14,8.18Z" fill="#e0e0e1"/><path d="M204.83,8.16l-2.09,0-99.3,99.3v2.45L205.14,8.18Z" fill="#e1e1e2"/><path d="M200.33,8.07,103.44,105v2.46l99.3-99.3Z" fill="#e2e2e3"/><path d="M197.93,8l-94.49,94.49V105L200.33,8.07Z" fill="#e3e3e4"/><path d="M195.52,8l-92.08,92.09v2.45L197.93,8Z" fill="#e5e5e5"/><path d="M193.12,7.93,103.44,97.6v2.46L195.52,8Z" fill="#e6e6e6"/><path d="M190.71,7.89,103.44,95.15V97.6L193.12,7.93Z" fill="#e7e7e7"/><path d="M188.29,7.85,103.44,92.7v2.45L190.71,7.89Z" fill="#e8e8e8"/><path d="M185.87,7.82,103.44,90.24V92.7L188.29,7.85Z" fill="#e9e9e9"/><path d="M183.43,7.8l-80,80v2.45L185.87,7.82Z" fill="#eaeaeb"/><path d="M181.87,7.78H181L103.44,85.34v2.45l80-80Z" fill="#ebebec"/><path d="M178.5,7.82,103.44,82.88v2.46L181,7.79Z" fill="#ececed"/><path d="M176,7.85,103.44,80.43v2.45L178.5,7.82C177.68,7.83,176.84,7.83,176,7.85Z" fill="#eee"/><path d="M173.47,8l-70,70v2.45L176,7.85Z" fill="#efefef"/><path d="M170.92,8.05,103.44,75.52V78l70-70Z" fill="#f0f0f0"/><path d="M168.31,8.2,103.44,73.07v2.45L170.92,8.05Z" fill="#f1f1f1"/><path d="M165.7,8.36,103.44,70.62v2.45L168.31,8.2Z" fill="#f2f2f3"/><path d="M163.05,8.56l-59.61,59.6v2.46L165.7,8.36Z" fill="#f4f4f4"/><path d="M160.38,8.78,103.44,65.71v2.45l59.61-59.6Z" fill="#f5f5f5"/><path d="M157.68,9,103.44,63.26v2.45L160.38,8.78Z" fill="#f6f6f6"/><path d="M155,9.28,103.44,60.8v2.46L157.68,9Z" fill="#f7f7f7"/><path d="M152.23,9.56,103.44,58.35V60.8L155,9.28Z" fill="#f9f9f9"/><path d="M149.47,9.86l-46,46v2.45L152.23,9.56Z" fill="#fafafa"/><path d="M146.71,10.17,103.44,53.44V55.9l46-46Z" fill="#fbfbfb"/><path d="M143.93,10.5,103.44,51v2.45l43.27-43.27Z" fill="#fcfcfc"/><path d="M141.15,10.83l-37.71,37.7V51L143.93,10.5Z" fill="#fefefe"/><path d="M138.36,11.16,103.44,46.08v2.45l37.71-37.7Z" fill="#fff"/><path d="M137.47,11.27l-34,34v.78l34.92-34.92Z" fill="#fff"/><path d="M136.71,11.36c-11.11,1.35-22.18,1.3-33.27,1.68V45.3l34-34Z" fill="#fff"/></g></g></g><path d="M202.05,75.23A12.35,12.35,0,1,1,189.7,62.88a12.35,12.35,0,0,1,12.35,12.35" fill="#141414"/><path d="M199.05,75.23a9.35,9.35,0,0,1-14.29,7.94h0A9.17,9.17,0,0,1,183.27,82a9.38,9.38,0,0,1-2.68-8.91,9.18,9.18,0,0,1,.51-1.56,9.34,9.34,0,0,1,8.6-5.67l.63,0a9.38,9.38,0,0,1,7.82,5.32,9,9,0,0,1,.56,1.53,9.22,9.22,0,0,1,.34,2.48" fill="#7d7d7d"/><path d="M193.84,82.36a8.28,8.28,0,0,1-8.5-.13l3.76-5.16a.55.55,0,0,1,.89,0Z" fill="#141414"/><path d="M188.76,67l0,6.25a.55.55,0,0,1-.71.52L182.12,72A8.26,8.26,0,0,1,188.76,67" fill="#141414"/><path d="M187.7,76.15,184,81.22a8.2,8.2,0,0,1-2.36-7.86l5.76,2a.55.55,0,0,1,.27.84" fill="#141414"/><path d="M197.94,75.23a8.2,8.2,0,0,1-2.85,6.23L191.16,76a.55.55,0,0,1,.27-.84L197.64,73a8.33,8.33,0,0,1,.3,2.19" fill="#141414"/><path d="M197.14,71.7,191,73.64a.55.55,0,0,1-.71-.52l0-6.11a8.22,8.22,0,0,1,6.89,4.69" fill="#141414"/><rect x="132.87" y="111.3" width="26.49" height="3" fill="#ff6400"/><rect x="141.41" y="111.3" width="19.1" height="3" fill="#06c4ab"/><rect x="138.66" y="112.3" width="7.96" height="3" fill="#1a1919"/><rect x="127.36" y="112.8" width="3.42" height="3" fill="#01aced"/><path d="M236.45,47.44H236a1.5,1.5,0,1,1,0-3h.44a1.5,1.5,0,1,1,0,3" fill="#ff6400"/><path d="M236.45,48.26H236a2.32,2.32,0,0,1,0-4.63h.44a2.32,2.32,0,1,1,0,4.63Zm-.44-3a.68.68,0,0,0,0,1.36h.44a.68.68,0,1,0,0-1.36Z" fill="#ff6400"/><path d="M242.9,47.44h2.93a1.5,1.5,0,1,0,0-3H242.9a1.5,1.5,0,1,0,0,3" fill="#1c8acd"/><path d="M245.83,48.26H242.9a2.32,2.32,0,1,1,0-4.63h2.93a2.32,2.32,0,1,1,0,4.63Zm-2.93-3a.68.68,0,0,0,0,1.36h2.93a.68.68,0,1,0,0-1.36Z" fill="#1c8acd"/><path d="M244.7,90.82a.92.92,0,1,1-.92-.91.92.92,0,0,1,.92.91" fill="#12d288"/><path d="M243.78,92.56a1.74,1.74,0,1,1,1.74-1.74A1.74,1.74,0,0,1,243.78,92.56Zm0-1.84a.11.11,0,0,0-.1.1c0,.11.2.11.2,0A.1.1,0,0,0,243.78,90.72Z" fill="#12d288"/><path d="M251.64,47.44h.72a1.5,1.5,0,1,0,0-3h-.72a1.5,1.5,0,1,0,0,3" fill="#1a1919"/><path d="M252.36,48.26h-.72a2.32,2.32,0,0,1,0-4.63h.72a2.32,2.32,0,0,1,0,4.63Zm-.72-3a.68.68,0,0,0,0,1.36h.72a.68.68,0,1,0,0-1.36Z" fill="#1a1919"/><path d="M221.59,105.42h-7.28a1.36,1.36,0,0,1,0-2.72h7.28a1.36,1.36,0,0,1,0,2.72Z" fill="#e82da1"/><path d="M226.94,104.06a.75.75,0,0,1-.75.76.76.76,0,0,1-.76-.76.75.75,0,0,1,.76-.75.74.74,0,0,1,.75.75" fill="#12d288"/><path d="M226.19,105.63a1.57,1.57,0,1,1,1.57-1.57A1.57,1.57,0,0,1,226.19,105.63Zm0-1.63-.06.06a.06.06,0,0,0,.06.06Z" fill="#12d288"/><path d="M246.5,105.42H231.75a1.36,1.36,0,0,1,0-2.72H246.5a1.36,1.36,0,1,1,0,2.72Z" fill="#e82da1"/><path d="M239.65,85.12h6a1.5,1.5,0,1,0,0-3h-6a1.5,1.5,0,1,0,0,3" fill="#ff6400"/><path d="M231.13,77.19h10.79a1.5,1.5,0,1,0,0-3H231.13a1.5,1.5,0,0,0,0,3" fill="#1a1919"/><path d="M232.93,85.12h-.42a1.5,1.5,0,1,1,0-3h.42a1.5,1.5,0,1,1,0,3" fill="#01aced"/><path d="M136,81.67h-.22a1.5,1.5,0,1,1,0-3H136a1.5,1.5,0,0,1,0,3" fill="#e82da1"/><path d="M136,82.49h-.22a2.32,2.32,0,1,1,0-4.63H136a2.32,2.32,0,0,1,0,4.63Zm-.22-3a.69.69,0,1,0,0,1.37H136a.69.69,0,0,0,0-1.37Z" fill="#e82da1"/><path d="M122.56,81.67h-2.94a1.5,1.5,0,1,1,0-3h2.94a1.5,1.5,0,0,1,0,3" fill="#1a1919"/><path d="M122.56,82.49h-2.94a2.32,2.32,0,0,1,0-4.63h2.94a2.32,2.32,0,0,1,0,4.63Zm-2.94-3a.69.69,0,0,0,0,1.37h2.94a.69.69,0,0,0,0-1.37Z" fill="#1a1919"/><path d="M133.74,46.19A.76.76,0,0,1,133,47a.76.76,0,1,1,.76-.76" fill="#12d288"/><path d="M133,47.76a1.57,1.57,0,1,1,1.57-1.57A1.57,1.57,0,0,1,133,47.76Zm0-1.63-.06.06a.06.06,0,0,0,.06.06Z" fill="#12d288"/><path d="M179.14,114.3H134.37a1.5,1.5,0,0,1,0-3h44.77a1.5,1.5,0,0,1,0,3" fill="#e82da1"/><path d="M179.14,115.12H134.37a2.32,2.32,0,1,1,0-4.63h44.77a2.32,2.32,0,0,1,0,4.63Zm-44.77-3a.68.68,0,1,0,0,1.36h44.77a.68.68,0,1,0,0-1.36Z" fill="#e82da1"/><path d="M187.82,114.3h.72a1.5,1.5,0,0,0,0-3h-.72a1.5,1.5,0,0,0,0,3" fill="#e82da1"/><path d="M188.54,115.12h-.72a2.32,2.32,0,0,1,0-4.63h.72a2.32,2.32,0,0,1,0,4.63Zm-.72-3a.68.68,0,0,0,0,1.36h.72a.68.68,0,1,0,0-1.36Z" fill="#e82da1"/><path d="M196.27,114.3h-.44a1.5,1.5,0,0,1,0-3h.44a1.5,1.5,0,0,1,0,3" fill="#ff6400"/><path d="M196.27,115.12h-.44a2.32,2.32,0,1,1,0-4.63h.44a2.32,2.32,0,0,1,0,4.63Zm-.44-3a.68.68,0,1,0,0,1.36h.44a.68.68,0,0,0,0-1.36Z" fill="#ff6400"/><path d="M202.79,114.3h2.93a1.5,1.5,0,0,0,0-3h-2.93a1.5,1.5,0,0,0,0,3" fill="#1c8acd"/><path d="M205.72,115.12h-2.93a2.32,2.32,0,1,1,0-4.63h2.93a2.32,2.32,0,1,1,0,4.63Zm-2.93-3a.68.68,0,0,0,0,1.36h2.93a.68.68,0,1,0,0-1.36Z" fill="#1c8acd"/><path d="M215.22,114.3h.72a1.5,1.5,0,0,0,0-3h-.72a1.5,1.5,0,0,0,0,3" fill="#1a1919"/><path d="M215.94,115.12h-.72a2.32,2.32,0,0,1,0-4.63h.72a2.32,2.32,0,1,1,0,4.63Zm-.72-3a.68.68,0,0,0,0,1.36h.72a.68.68,0,1,0,0-1.36Z" fill="#1a1919"/><path d="M232.32,113.14a.92.92,0,1,1-.92-.91.92.92,0,0,1,.92.91" fill="#0db8d7"/><path d="M231.4,114.88a1.74,1.74,0,1,1,1.73-1.74A1.74,1.74,0,0,1,231.4,114.88Zm0-1.84a.11.11,0,0,0-.1.1c0,.11.2.11.2,0A.1.1,0,0,0,231.4,113Z" fill="#0db8d7"/><path d="M182.19,106.24a.94.94,0,1,1-.94-.93.94.94,0,0,1,.94.93" fill="#1a1919"/><path d="M251.06,76.44h1.33a1.5,1.5,0,0,0,0-3h-1.33a1.5,1.5,0,1,0,0,3" fill="#0db8d7"/><path d="M236.23,33.69a.92.92,0,1,1-.92-.91.92.92,0,0,1,.92.91" fill="#e82da1"/><path d="M235.31,35.43a1.74,1.74,0,1,1,1.74-1.74A1.74,1.74,0,0,1,235.31,35.43Zm0-1.84a.1.1,0,0,0-.09.1c0,.11.19.11.19,0A.1.1,0,0,0,235.31,33.59Z" fill="#e82da1"/><path d="M122.27,73.56a.92.92,0,1,1-.91-.92.92.92,0,0,1,.91.92" fill="#ff6400"/><path d="M121.35,75.29a1.73,1.73,0,1,1,1.74-1.73A1.74,1.74,0,0,1,121.35,75.29Zm0-1.83a.1.1,0,0,0-.1.1c0,.11.2.11.2,0A.09.09,0,0,0,121.35,73.46Z" fill="#ff6400"/><path d="M133.79,73.56a.92.92,0,1,1-.92-.92.92.92,0,0,1,.92.92" fill="#12d288"/><path d="M132.87,75.29a1.73,1.73,0,1,1,1.73-1.73A1.73,1.73,0,0,1,132.87,75.29Zm0-1.83a.1.1,0,0,0-.1.1c0,.11.2.11.2,0A.09.09,0,0,0,132.87,73.46Z" fill="#12d288"/><path d="M129.51,53a.92.92,0,1,1-.91-.91.92.92,0,0,1,.91.91" fill="#0db8d7"/><path d="M128.6,54.7A1.73,1.73,0,1,1,130.33,53,1.73,1.73,0,0,1,128.6,54.7Zm0-1.83a.1.1,0,0,0-.1.1c0,.11.19.11.19,0A.1.1,0,0,0,128.6,52.87Z" fill="#0db8d7"/><path d="M221.83,27.09a.92.92,0,1,0,.92-.92.92.92,0,0,0-.92.92" fill="#e82da1"/><path d="M222.75,28.82a1.73,1.73,0,1,1,1.73-1.73A1.74,1.74,0,0,1,222.75,28.82Zm0-1.83a.1.1,0,0,0-.1.1c0,.11.2.11.2,0A.09.09,0,0,0,222.75,27Z" fill="#e82da1"/><path d="M122.8,46.19a.92.92,0,1,0,.92-.91.92.92,0,0,0-.92.91" fill="#ff6400"/><path d="M123.72,47.93a1.74,1.74,0,1,1,1.73-1.74A1.73,1.73,0,0,1,123.72,47.93Zm0-1.83a.09.09,0,0,0-.1.09c0,.11.2.11.2,0A.1.1,0,0,0,123.72,46.1Z" fill="#ff6400"/><path d="M228.62,27.09a.92.92,0,1,0,.92-.92.92.92,0,0,0-.92.92" fill="#1c8acd"/><path d="M229.54,28.82a1.73,1.73,0,1,1,1.73-1.73A1.73,1.73,0,0,1,229.54,28.82Zm0-1.83a.1.1,0,0,0-.1.1c0,.11.2.11.2,0A.1.1,0,0,0,229.54,27Z" fill="#1c8acd"/><path d="M200.81,14.24h6.05a1.5,1.5,0,0,0,0-3h-6.05a1.5,1.5,0,0,0,0,3" fill="#ff6400"/><path d="M170.45,14.24h16.11a1.5,1.5,0,0,0,0-3H170.45a1.5,1.5,0,0,0,0,3" fill="#06c4ab"/><path d="M194.09,14.24h-.42a1.5,1.5,0,0,1,0-3h.42a1.5,1.5,0,0,1,0,3" fill="#01aced"/><path d="M112.19,64.05h1.16a1.5,1.5,0,1,0,0-3h-1.16a1.5,1.5,0,1,0,0,3" fill="#06c4ab"/><path d="M135.83,64.05H125.45a1.5,1.5,0,1,1,0-3h10.38a1.5,1.5,0,1,1,0,3" fill="#01aced"/><path d="M238,59.1h2.85a1.5,1.5,0,0,0,0-3H238a1.5,1.5,0,0,0,0,3" fill="#e82da1"/><path d="M250.39,59.1h13.28a1.5,1.5,0,0,0,0-3H250.39a1.5,1.5,0,0,0,0,3" fill="#1a1919"/><path d="M252.46,65a.76.76,0,1,1-.75-.76.76.76,0,0,1,.75.76" fill="#12d288"/><path d="M141.15,25.12h.72a1.5,1.5,0,1,0,0-3h-.72a1.5,1.5,0,1,0,0,3" fill="#e82da1"/><path d="M149.6,25.12h-.44a1.5,1.5,0,1,1,0-3h.44a1.5,1.5,0,1,1,0,3" fill="#ff6400"/><path d="M155.32,25.12h2.94a1.5,1.5,0,1,0,0-3h-2.94a1.5,1.5,0,0,0,0,3" fill="#1c8acd"/><path d="M200.73,105.71h7.17a1.5,1.5,0,0,0,0-3h-4.35a1.5,1.5,0,0,0-1.5,1.5c0,.83-2.15,1.5-1.32,1.5" fill="#06c4ab"/><path d="M208.85,21.56a.92.92,0,1,0,.92-.91.92.92,0,0,0-.92.91" fill="#1c8acd"/><path d="M123.19,36.11a.92.92,0,1,1-.92-.92.92.92,0,0,1,.92.92" fill="#0db8d7"/><path d="M122.27,37.84A1.74,1.74,0,1,1,124,36.11,1.74,1.74,0,0,1,122.27,37.84Zm0-1.83a.1.1,0,0,0-.1.1c0,.11.2.1.2,0A.09.09,0,0,0,122.27,36Z" fill="#0db8d7"/><path d="M129.82,37.6h15.75a1.5,1.5,0,0,0,0-3H129.82a1.5,1.5,0,1,0,0,3" fill="#ff6400"/><polyline points="151.78 98.65 155.26 94.44 161.33 99.52 157.77 103.73" fill="#1b3445"/><path d="M157.71,108.72l1.72-2a2,2,0,0,0-.25-2.87l-7.8-6.4a2,2,0,0,0-2.76.19l-8.75,9.49-16.61,19.54,9.18,12.4,14.3-11.74Z" fill="#ff6400"/><g clip-path="url(#clip-path-6)"><g opacity="0.62"><g clip-path="url(#clip-path-7)"><g clip-path="url(#clip-path-8)"><g clip-path="url(#clip-path-9)"><rect x="132.04" y="99.61" width="2.1" height="41" fill="#ff6400"/><rect x="134.14" y="99.61" width="0.46" height="41" fill="#ff6400"/><rect x="134.6" y="99.61" width="0.46" height="41" fill="#ff6400"/><rect x="135.05" y="99.61" width="0.46" height="41" fill="#fe6300"/><rect x="135.51" y="99.61" width="0.46" height="41" fill="#fe6301"/><rect x="135.97" y="99.61" width="0.46" height="41" fill="#fe6201"/><rect x="136.43" y="99.61" width="0.46" height="41" fill="#fd6101"/><rect x="136.89" y="99.61" width="0.46" height="41" fill="#fd6102"/><rect x="137.34" y="99.61" width="0.46" height="41" fill="#fc6002"/><rect x="137.8" y="99.61" width="0.46" height="41" fill="#fc5f02"/><rect x="138.26" y="99.61" width="0.46" height="41" fill="#fc5e03"/><rect x="138.72" y="99.61" width="0.46" height="41" fill="#fb5e03"/><rect x="139.18" y="99.61" width="0.46" height="41" fill="#fb5d04"/><rect x="139.63" y="99.61" width="0.46" height="41" fill="#fa5c04"/><rect x="140.09" y="99.61" width="0.46" height="41" fill="#fa5b04"/><rect x="140.55" y="99.61" width="0.46" height="41" fill="#f95a05"/><rect x="141.01" y="99.61" width="0.46" height="41" fill="#f95905"/><rect x="141.47" y="99.61" width="0.46" height="41" fill="#f85906"/><rect x="141.92" y="99.61" width="0.46" height="41" fill="#f75806"/><rect x="142.38" y="99.61" width="0.46" height="41" fill="#f75707"/><rect x="142.84" y="99.61" width="0.46" height="41" fill="#f65607"/><rect x="143.3" y="99.61" width="0.46" height="41" fill="#f65507"/><rect x="143.76" y="99.61" width="0.46" height="41" fill="#f55408"/><rect x="144.21" y="99.61" width="0.46" height="41" fill="#f55308"/><rect x="144.67" y="99.61" width="0.46" height="41" fill="#f45209"/><rect x="145.13" y="99.61" width="0.46" height="41" fill="#f35109"/><rect x="145.59" y="99.61" width="0.46" height="41" fill="#f3500a"/><rect x="146.05" y="99.61" width="0.46" height="41" fill="#f24f0a"/><rect x="146.5" y="99.61" width="0.46" height="41" fill="#f24e0b"/><rect x="146.96" y="99.61" width="0.46" height="41" fill="#f14d0b"/><rect x="147.42" y="99.61" width="0.46" height="41" fill="#f04c0c"/><rect x="147.88" y="99.61" width="0.46" height="41" fill="#f04b0c"/><rect x="148.34" y="99.61" width="0.46" height="41" fill="#ef4a0d"/><rect x="148.79" y="99.61" width="0.46" height="41" fill="#ee490d"/><rect x="149.25" y="99.61" width="0.46" height="41" fill="#ee480e"/><rect x="149.71" y="99.61" width="0.46" height="41" fill="#ed470e"/><rect x="150.17" y="99.61" width="0.46" height="41" fill="#ec460f"/><rect x="150.63" y="99.61" width="0.46" height="41" fill="#ec4410"/><rect x="151.08" y="99.61" width="0.46" height="41" fill="#eb4310"/><rect x="151.54" y="99.61" width="0.46" height="41" fill="#ea4211"/><rect x="152" y="99.61" width="0.46" height="41" fill="#ea4111"/><rect x="152.46" y="99.61" width="0.46" height="41" fill="#e94012"/><rect x="152.92" y="99.61" width="0.46" height="41" fill="#e83f12"/><rect x="153.38" y="99.61" width="0.46" height="41" fill="#e83e13"/><rect x="153.83" y="99.61" width="0.46" height="41" fill="#e73d13"/><rect x="154.29" y="99.61" width="0.46" height="41" fill="#e63c14"/><rect x="154.75" y="99.61" width="0.46" height="41" fill="#e63a14"/><rect x="155.21" y="99.61" width="0.46" height="41" fill="#e53915"/><rect x="155.67" y="99.61" width="0.46" height="41" fill="#e43816"/><rect x="156.12" y="99.61" width="0.46" height="41" fill="#e33716"/><rect x="156.58" y="99.61" width="0.46" height="41" fill="#e33617"/><rect x="157.04" y="99.61" width="0.46" height="41" fill="#e23517"/><rect x="157.5" y="99.61" width="0.46" height="41" fill="#e13318"/><rect x="157.96" y="99.61" width="0.46" height="41" fill="#e13219"/><rect x="158.41" y="99.61" width="0.46" height="41" fill="#e03119"/><rect x="158.87" y="99.61" width="0.46" height="41" fill="#df301a"/><rect x="159.33" y="99.61" width="0.46" height="41" fill="#de2f1a"/><rect x="159.79" y="99.61" width="0.46" height="41" fill="#de2d1b"/><rect x="160.25" y="99.61" width="0.46" height="41" fill="#dd2c1b"/><rect x="160.7" y="99.61" width="0.46" height="41" fill="#dc2b1c"/><rect x="161.16" y="99.61" width="0.46" height="41" fill="#db2a1d"/><rect x="161.62" y="99.61" width="0.46" height="41" fill="#db281d"/><rect x="162.08" y="99.61" width="0.46" height="41" fill="#da271e"/><rect x="162.54" y="99.61" width="0.46" height="41" fill="#d9261f"/><rect x="162.99" y="99.61" width="0.46" height="41" fill="#d8251f"/><rect x="163.45" y="99.61" width="0.46" height="41" fill="#d82420"/><rect x="163.91" y="99.61" width="0.46" height="41" fill="#d72220"/><rect x="164.37" y="99.61" width="0.46" height="41" fill="#d62121"/><rect x="164.83" y="99.61" height="41" fill="#d62121"/></g></g></g></g></g><path d="M164.58,107.33c-6.66-4.6-15.72,11.19-17.49,14.43a3,3,0,0,1-.73.9,113.18,113.18,0,0,0-8,8.56l.08-.67c.42-3.25,1.9-17.05,2.07-18.49s.48-6.1.48-6.1l6.68-7.24c-7.06-9.15-11.27-9.07-14.6-6.92a10.79,10.79,0,0,0-2.13,2.49s-7.89.85-10.59,3.45a12.43,12.43,0,0,0-1.81,2.52,19.64,19.64,0,0,0-10.6,4.24,7.37,7.37,0,0,0-1.26,1.23,11.8,11.8,0,0,0-3.46.72,11,11,0,0,0-5.38,4.69l-6.56,11.12a22,22,0,0,0-3,10.38l-2.39,31.15a3.77,3.77,0,0,1-.33,1.4l-1.38,3.06a55.94,55.94,0,0,1,35.24,12.6l2.11-4.87a5.34,5.34,0,0,1,2-2.39c3.11-2,8.83-6.26,11.28-9.51,2.88-3.8,18.29-27.46,21.86-34.37A159.23,159.23,0,0,0,165,108.34a.94.94,0,0,0-.39-1" fill="#f8bd84"/><g clip-path="url(#clip-path-10)"><g opacity="0.61" style="mix-blend-mode:multiply"><g clip-path="url(#clip-path-11)"><path d="M153.42,94.54s4.79,7.94,8.71,9.59l3-5.35-9.26-7.55Z" fill="#1b3445"/></g></g></g><path d="M98.81,120.61a.14.14,0,0,1-.11-.07.43.43,0,0,1,0-.12h0a.14.14,0,0,0,0-.06h0c.51-1.52,5.25-11.37,7.64-14.62a.14.14,0,0,1,.18,0,.12.12,0,0,1,0,.17c-2.75,3.74-7.11,13.35-7.6,14.52,0,0,0,0,0,.06s-.07.15-.15.15Z"/><path d="M109.26,119.94h-.05a.12.12,0,0,1-.06-.16c.06-.14,5.89-13.72,9.34-19.63a.13.13,0,1,1,.22.12c-3.45,5.9-9.27,19.47-9.33,19.61A.14.14,0,0,1,109.26,119.94Z"/><path d="M119.23,121.65h0a.13.13,0,0,1-.07-.16c.07-.2,7.33-20,11.64-27.26a.12.12,0,1,1,.21.13c-4.29,7.19-11.54,27-11.62,27.22A.11.11,0,0,1,119.23,121.65Z"/><path d="M137.75,133.75h-.05a.13.13,0,0,1-.07-.16,12.18,12.18,0,0,0,.54-2.51.12.12,0,0,1,.15-.1.12.12,0,0,1,.1.14,12.37,12.37,0,0,1-.56,2.56A.13.13,0,0,1,137.75,133.75Z"/><path d="M140.85,106.17h0a.12.12,0,0,1-.1-.14c.47-2.79.91-5.3.91-5.3a.12.12,0,0,1,.14-.1.12.12,0,0,1,.1.14s-.44,2.52-.9,5.3A.15.15,0,0,1,140.85,106.17Z"/><path d="M187.67,107.57c-.95,0-1.91,0-2.87-.09a46.43,46.43,0,1,1,2.87.09m-.09-90.89a44.22,44.22,0,1,0,44.17,46.88l1.22.08-1.22-.08a44.27,44.27,0,0,0-41.48-46.8c-.9-.05-1.8-.08-2.69-.08" fill="#ff6400"/><g clip-path="url(#clip-path)"><path d="M165.7,57.59a1,1,0,1,0,.73-1.15,1,1,0,0,0-.73,1.15" fill="#eff1f2"/></g><g clip-path="url(#clip-path-4)"><g mask="url(#mask)"><g clip-path="url(#clip-path-14)"><path d="M245,15.8,136.5,124.27H251.62V19.44A23.51,23.51,0,0,1,245,15.8Z" fill="#e6e6e6"/><path d="M244.84,15.7,136.26,124.27h.24L245,15.8Z" fill="#e6e6e6"/><path d="M244.75,15.63,136.1,124.27h.16L244.84,15.7Z" fill="#e6e6e6"/><path d="M244.66,15.56,135.94,124.27h.16L244.75,15.63Z" fill="#e6e6e6"/><path d="M244.57,15.49,135.78,124.27h.16L244.66,15.56Z" fill="#e5e5e5"/><path d="M244.48,15.42,135.62,124.27h.16L244.57,15.49Z" fill="#e4e4e4"/><path d="M244.39,15.35,135.46,124.27h.16L244.48,15.42Z" fill="#e3e3e4"/><path d="M244.25,15.32l-108.95,109h.16L244.39,15.35h0Z" fill="#e3e3e3"/><path d="M244.11,15.3l-109,109h.17l109-108.95Z" fill="#e2e2e2"/><path d="M244,15.28l-109,109h.16l109-109Z" fill="#e1e1e1"/><path d="M243.83,15.26l-109,109H135l109-109Z" fill="#e0e0e0"/><path d="M243.69,15.24l-109,109h.16l109-109Z" fill="#dededf"/><path d="M243.55,15.22,134.49,124.27h.16l109-109Z" fill="#ddddde"/><path d="M243.41,15.2,134.33,124.27h.16l109.06-109Z" fill="#dcdcdd"/><path d="M243.27,15.18,134.17,124.27h.16L243.41,15.2Z" fill="#dbdbdc"/><path d="M243.12,15.16,134,124.27h.16L243.27,15.18Z" fill="#dadada"/><path d="M243,15.14,133.85,124.27H134L243.12,15.16Z" fill="#d8d8d9"/><path d="M242.84,15.12,133.68,124.27h.17L243,15.14Z" fill="#d7d7d8"/><path d="M242.7,15.1,133.52,124.27h.16L242.84,15.12Z" fill="#d6d6d7"/><path d="M242.56,15.08,133.36,124.27h.16L242.7,15.1Z" fill="#d4d4d5"/><path d="M242.42,15.06,133.2,124.27h.16L242.56,15.08Z" fill="#d3d3d4"/><path d="M240.23,14.79,130.75,124.27h2.45L242.42,15.06Q241.33,14.91,240.23,14.79Z" fill="#d3d3d4"/><path d="M238,14.55,128.29,124.27h2.46L240.23,14.79C239.5,14.7,238.76,14.62,238,14.55Z" fill="#d3d3d4"/><path d="M235.81,14.31l-110,110h2.45L238,14.55Z" fill="#d4d4d5"/><path d="M233.6,14.06,123.39,124.27h2.45l110-110Z" fill="#d4d4d5"/><path d="M231.43,13.78,120.93,124.27h2.46L233.6,14.06Z" fill="#d5d5d6"/><path d="M229.3,13.46,118.48,124.27h2.45L231.43,13.78C230.71,13.68,230,13.58,229.3,13.46Z" fill="#d6d6d7"/><path d="M227.23,13.07,116,124.27h2.45L229.3,13.46Q228.25,13.28,227.23,13.07Z" fill="#d7d7d7"/><path d="M225.24,12.61,113.57,124.27H116l111.2-111.2C226.56,12.93,225.9,12.78,225.24,12.61Z" fill="#d7d7d8"/><path d="M223.87,12.23l-.54-.17L111.12,124.27h2.45L225.24,12.61Z" fill="#d8d8d9"/><path d="M221.45,11.49,108.67,124.27h2.45L223.33,12.06Z" fill="#d9d9da"/><path d="M219.57,10.92,106.21,124.27h2.46L221.45,11.49Z" fill="#dadadb"/><path d="M217.67,10.36,103.76,124.27h2.45L219.57,10.92Z" fill="#dbdbdb"/><path d="M215.75,9.83,103.44,122.14v2.13h.32L217.67,10.36Z" fill="#dcdcdc"/><path d="M213.79,9.34,103.44,119.69v2.45L215.75,9.83C215.1,9.66,214.44,9.49,213.79,9.34Z" fill="#dcdcdd"/><path d="M211.77,8.91,103.44,117.23v2.46L213.79,9.34C213.12,9.18,212.44,9,211.77,8.91Z" fill="#ddddde"/><path d="M209.67,8.55,103.44,114.78v2.45L211.77,8.91C211.07,8.78,210.38,8.65,209.67,8.55Z" fill="#dededf"/><path d="M207.47,8.3l-104,104v2.45L209.67,8.55C209,8.45,208.21,8.36,207.47,8.3Z" fill="#dfdfe0"/><path d="M205.14,8.18,103.44,109.87v2.46l104-104C206.71,8.23,205.93,8.2,205.14,8.18Z" fill="#e0e0e1"/><path d="M204.83,8.16l-2.09,0-99.3,99.3v2.45L205.14,8.18Z" fill="#e1e1e2"/><path d="M200.33,8.07,103.44,105v2.46l99.3-99.3Z" fill="#e2e2e3"/><path d="M197.93,8l-94.49,94.49V105L200.33,8.07Z" fill="#e3e3e4"/><path d="M195.52,8l-92.08,92.09v2.45L197.93,8Z" fill="#e5e5e5"/><path d="M193.12,7.93,103.44,97.6v2.46L195.52,8Z" fill="#e6e6e6"/><path d="M190.71,7.89,103.44,95.15V97.6L193.12,7.93Z" fill="#e7e7e7"/><path d="M188.29,7.85,103.44,92.7v2.45L190.71,7.89Z" fill="#e8e8e8"/><path d="M185.87,7.82,103.44,90.24V92.7L188.29,7.85Z" fill="#e9e9e9"/><path d="M183.43,7.8l-80,80v2.45L185.87,7.82Z" fill="#eaeaeb"/><path d="M181.87,7.78H181L103.44,85.34v2.45l80-80Z" fill="#ebebec"/><path d="M178.5,7.82,103.44,82.88v2.46L181,7.79Z" fill="#ececed"/><path d="M176,7.85,103.44,80.43v2.45L178.5,7.82C177.68,7.83,176.84,7.83,176,7.85Z" fill="#eee"/><path d="M173.47,8l-70,70v2.45L176,7.85Z" fill="#efefef"/><path d="M170.92,8.05,103.44,75.52V78l70-70Z" fill="#f0f0f0"/><path d="M168.31,8.2,103.44,73.07v2.45L170.92,8.05Z" fill="#f1f1f1"/><path d="M165.7,8.36,103.44,70.62v2.45L168.31,8.2Z" fill="#f2f2f3"/><path d="M163.05,8.56l-59.61,59.6v2.46L165.7,8.36Z" fill="#f4f4f4"/><path d="M160.38,8.78,103.44,65.71v2.45l59.61-59.6Z" fill="#f5f5f5"/><path d="M157.68,9,103.44,63.26v2.45L160.38,8.78Z" fill="#f6f6f6"/><path d="M155,9.28,103.44,60.8v2.46L157.68,9Z" fill="#f7f7f7"/><path d="M152.23,9.56,103.44,58.35V60.8L155,9.28Z" fill="#f9f9f9"/><path d="M149.47,9.86l-46,46v2.45L152.23,9.56Z" fill="#fafafa"/><path d="M146.71,10.17,103.44,53.44V55.9l46-46Z" fill="#fbfbfb"/><path d="M143.93,10.5,103.44,51v2.45l43.27-43.27Z" fill="#fcfcfc"/><path d="M141.15,10.83l-37.71,37.7V51L143.93,10.5Z" fill="#fefefe"/><path d="M138.36,11.16,103.44,46.08v2.45l37.71-37.7Z" fill="#fff"/><path d="M137.47,11.27l-34,34v.78l34.92-34.92Z" fill="#fff"/><path d="M136.71,11.36c-11.11,1.35-22.18,1.3-33.27,1.68V45.3l34-34Z" fill="#fff"/></g></g></g><g clip-path="url(#clip-path-15)"><g mask="url(#mask-3)"><g clip-path="url(#clip-path-16)"><path d="M146.09,153.4c.14-.18.29-.34.44-.51H102.68l38.23,11.63a33.28,33.28,0,0,1,4.56-5.46A5.21,5.21,0,0,1,146.09,153.4Z" fill="#e6e6e6"/><path d="M140.91,164.52l-38.23-11.63h-.44l38.6,11.74Z" fill="#e6e6e6"/><path d="M140.84,164.63l-38.6-11.74H102l38.84,11.82Z" fill="#e6e6e6"/><path d="M140.79,164.71,102,152.89h-.3l39.09,11.89Z" fill="#e6e6e6"/><path d="M140.74,164.78l-39.09-11.89h-.29l39.33,12Z" fill="#e5e5e5"/><path d="M140.69,164.86l-39.33-12h-.3l39.58,12Z" fill="#e4e4e4"/><path d="M140.64,164.93l-39.58-12h-.3L140.59,165A.35.35,0,0,0,140.64,164.93Z" fill="#e3e3e4"/><path d="M140.59,165l-39.83-12.12h-.29l40.07,12.19Z" fill="#e3e3e3"/><path d="M140.54,165.08l-40.07-12.19h-.3l40.32,12.27Z" fill="#e2e2e2"/><path d="M140.49,165.16l-40.32-12.27h-.29l40.56,12.34Z" fill="#e1e1e1"/><path d="M140.44,165.23,99.88,152.89h-.3l40.81,12.42Z" fill="#e0e0e0"/><path d="M140.39,165.31,99.58,152.89h-.3l41.07,12.49Z" fill="#dededf"/><path d="M140.35,165.38,99.28,152.89H99l41.31,12.57Z" fill="#ddddde"/><path d="M140.3,165.46,99,152.89h-.3l41.56,12.64Z" fill="#dcdcdd"/><path d="M140.25,165.53,98.69,152.89H98.4l41.8,12.72Z" fill="#dbdbdc"/><path d="M140.2,165.61,98.4,152.89h-.3l42.05,12.79Z" fill="#dadada"/><path d="M140.15,165.68,98.1,152.89h-.3l42.3,12.87A.35.35,0,0,1,140.15,165.68Z" fill="#d8d8d9"/><path d="M140.1,165.76,97.8,152.89h-.29l42.54,12.94Z" fill="#d7d7d8"/><path d="M140.05,165.83,97.51,152.89h-.3l42.79,13A.35.35,0,0,1,140.05,165.83Z" fill="#d6d6d7"/><path d="M140,165.91l-42.79-13h-.29L140,166Z" fill="#d4d4d5"/><path d="M140,166l-43-13.09h-.3l43.28,13.17Z" fill="#d3d3d4"/><path d="M139.9,166.06,96.62,152.89H92.11l47.07,14.32Z" fill="#d3d3d4"/><path d="M139.18,167.21,92.11,152.89H87.6l50.87,15.48C138.71,168,139,167.6,139.18,167.21Z" fill="#d3d3d4"/><path d="M138.47,168.37,87.6,152.89H83.1l54.69,16.64C138,169.14,138.24,168.75,138.47,168.37Z" fill="#d4d4d5"/><path d="M137.79,169.53,83.1,152.89H78.59l58.52,17.8Z" fill="#d4d4d5"/><path d="M137.11,170.69l-58.52-17.8H74.08l62.35,19C136.65,171.47,136.88,171.08,137.11,170.69Z" fill="#d5d5d6"/><path d="M74.08,152.89h-.39a5.3,5.3,0,0,1,.8,1.5L135.75,173l.35-.6.33-.56Z" fill="#d6d6d7"/><path d="M74.49,154.39a4.14,4.14,0,0,1,.23,1.44l60.37,18.36.66-1.17Z" fill="#d7d7d7"/><path d="M74.72,155.83a4,4,0,0,1-.23,1.3l59.93,18.23c.22-.39.44-.78.67-1.17Z" fill="#d7d7d8"/><path d="M74.49,157.13a4.51,4.51,0,0,1-.63,1.18l59.89,18.22.67-1.17Z" fill="#d8d8d9"/><path d="M73.86,158.31a5.67,5.67,0,0,1-.7.79l-.31.27,60.24,18.33.66-1.17Z" fill="#d9d9da"/><path d="M72.85,159.37c-.38.35-.78.68-1.16,1l60.77,18.49.63-1.18Z" fill="#dadadb"/><path d="M71.69,160.39c-.39.34-.77.69-1.16,1l61.29,18.65c.21-.4.42-.79.64-1.18Z" fill="#dbdbdb"/><path d="M70.53,161.41l-1.19,1,61.84,18.81.64-1.17Z" fill="#dcdcdc"/><path d="M69.34,162.42l-1.19,1,62.39,19c.21-.39.43-.78.64-1.18Z" fill="#dcdcdd"/><path d="M68.15,163.43l-1.2,1L124.8,182c0-.14.08-.28.13-.42a4.88,4.88,0,0,1,.32-.81Z" fill="#ddddde"/><path d="M67,164.44c-.4.33-.79.67-1.18,1l63.53,19.33c.21-.4.42-.79.62-1.19Z" fill="#dededf"/><path d="M65.77,165.45l-1.18,1L124,184.54c.14-.42.27-.84.4-1.25Z" fill="#dfdfe0"/><path d="M64.59,166.46l-1.14,1,64.61,19.65.62-1.18Z" fill="#e0e0e1"/><path d="M63.83,167.6c-.11.43-.23.85-.33,1.27L123.21,187c.14-.42.27-.83.4-1.25Z" fill="#e1e1e2"/><path d="M62.35,168.52c-.37.35-.75.68-1.1,1l65.58,19.95.62-1.18Z" fill="#e2e2e3"/><path d="M63.2,170.15c-.1.43-.19.86-.29,1.29l59.51,18.1.39-1.25Z" fill="#e3e3e4"/><path d="M60.24,170.62q-.5.54-1,1.08l66.32,20.18v0c.21-.39.41-.78.61-1.17Z" fill="#e5e5e5"/><path d="M62.62,172.72,62.35,174l59.3,18c.12-.42.25-.84.38-1.26Z" fill="#e6e6e6"/><path d="M58.37,172.8c-.3.36-.58.74-.86,1.11l66.83,20.33c.22-.39.42-.79.63-1.18Z" fill="#e7e7e7"/><path d="M62.07,175.29c-.1.43-.19.86-.29,1.29l59.14,18c.11-.42.23-.85.35-1.27Z" fill="#e8e8e8"/><path d="M61.78,176.58c-.09.43-.2.85-.3,1.28l59.09,18c.11-.42.23-.84.35-1.26Z" fill="#e9e9e9"/><path d="M55.87,176.15l-.8,1.13,67.3,20.47.67-1.17Z" fill="#eaeaeb"/><path d="M61.18,179.14l-.18.78-.15.49,59,18,.1-.18c.08-.37.17-.73.26-1.08Z" fill="#ebebec"/><path d="M60.85,180.41c-.12.42-.23.85-.37,1.26l58.76,17.87.65-1.17Z" fill="#ececed"/><path d="M53.48,179.54c-.26.38-.54.75-.81,1.12l67.68,20.59c.23-.39.45-.78.68-1.16Z" fill="#eee"/><path d="M60,182.9c-.16.42-.33.82-.5,1.22l58.39,17.77.66-1.17Z" fill="#efefef"/><path d="M51.84,181.78c-.28.37-.57.75-.86,1.11l68.12,20.72c.2-.4.4-.8.61-1.18Z" fill="#f0f0f0"/><path d="M59,185.33c-.19.4-.38.8-.59,1.19l58.2,17.71c.22-.39.44-.78.67-1.17Z" fill="#f1f1f1"/><path d="M50.07,184c-.31.36-.62.72-1,1.08L118,206l.57-1.2Z" fill="#f2f2f3"/><path d="M57.77,187.7c-.22.39-.44.78-.67,1.17l58.18,17.7c.23-.39.45-.78.67-1.17Z" fill="#f4f4f4"/><path d="M57.1,188.87,56.39,190l58.23,17.72.66-1.17Z" fill="#f5f5f5"/><path d="M47.09,187.19c-.36.36-.72.7-1.09,1l70.1,21.33q.34-.57.66-1.17Z" fill="#f6f6f6"/><path d="M55.66,191.17l-.75,1.14,58.38,17.76.66-1.17Z" fill="#f7f7f7"/><path d="M54.91,192.31l-.77,1.14,58.49,17.79.66-1.17Z" fill="#f9f9f9"/><path d="M54.14,193.45l-.77,1.14L112,212.41l.66-1.17Z" fill="#fafafa"/><path d="M53.37,194.59l-.78,1.13L109.49,213c.75-.05,1.49-.12,2.24-.19l.24-.43Z" fill="#fbfbfb"/><path d="M41.17,192.25c-.43.33-.87.65-1.32,1l68,20.68c.9-.11,1.79-.24,2.69-.38l.38-.06Z" fill="#fcfcfc"/><path d="M51.83,196.86c-.26.38-.51.76-.75,1.15l50.24,15.28,4.22-.09Z" fill="#fefefe"/><path d="M38.49,194.18c-.46.32-.93.63-1.4.94l61.3,18.65a26.19,26.19,0,0,1,4.77.08Z" fill="#fff"/><path d="M50.34,199.15c-.07.13-.15.25-.23.37l45.71,13.9,1.28,0Z" fill="#fff"/><path d="M36.63,195.42c-2.94,1.91-6,3.64-9,5.27,0,.3,0,.6,0,.91.23,4.06.2,8.12.54,12.16l69,.07Z" fill="#fff"/></g></g></g><g clip-path="url(#clip-path-17)"><g opacity="0.27" style="mix-blend-mode:multiply"><g clip-path="url(#clip-path-18)"><path d="M129.45,181.94l2.92-2.9c1.21-2.22,2.44-4.43,3.73-6.62a81.5,81.5,0,0,1,7-10.81v-9.32c-6.72,11-17.08,17.19-21.93,20s-11.24,11.35-11.24,11.35l8.71,1.65Z" fill="#f8bd84"/></g></g><g opacity="0.43" style="mix-blend-mode:multiply"><g clip-path="url(#clip-path-19)"><path d="M141.78,101a13.34,13.34,0,0,0,2.56,2l-2.85,3.38L141,106Z" fill="#f8bd84"/></g></g></g></g></g></svg>