<svg id="e681498c-4742-4f06-8129-13f4c4bfba4e" data-name="Layer 1" xmlns="http://www.w3.org/2000/svg" xmlns:xlink="http://www.w3.org/1999/xlink" width="172" height="64" viewBox="0 0 172 64"><defs><mask id="f1d7a655-ee29-425c-b552-d0cfdd68fd55" x="2" y="16" width="53" height="47.2" maskUnits="userSpaceOnUse"><g id="a0aa0182-ff7d-4974-9a7d-836d71925a77" data-name="mask-2"><path id="a331fb44-2870-46dd-b066-ba38f6984d02" data-name="path-1" d="M13.2,40.65a4.07,4.07,0,0,0-4,4,4.36,4.36,0,0,0,1.16,2.85,3.83,3.83,0,0,0,5.75.06,4.05,4.05,0,0,0-2.88-6.89Zm1.65,5.73a2.36,2.36,0,0,1-1.65.75,2.29,2.29,0,0,1-1.66-.84,2.63,2.63,0,0,1-.71-1.7,2.4,2.4,0,0,1,2.37-2.31,2.49,2.49,0,0,1,2.36,2.42,2.44,2.44,0,0,1-.7,1.69ZM43.8,40.65a4,4,0,0,0-2.87,6.88,3.89,3.89,0,0,0,5.8-.06,4.36,4.36,0,0,0,1.16-2.85,4.07,4.07,0,0,0-4-4Zm2.36,4a2.59,2.59,0,0,1-.71,1.71,2.28,2.28,0,0,1-1.65.84,2.38,2.38,0,0,1-1.66-.75,2.43,2.43,0,0,1-.7-1.67,2.48,2.48,0,0,1,2.36-2.41,2.4,2.4,0,0,1,2.37,2.28Zm-31.67-9h28a.82.82,0,0,0,.69-.37.87.87,0,0,0,.07-.84l-2.56-5.82c-.89-2.34-3.31-2.34-4.61-2.34H20.9c-1.3,0-3.73,0-4.6,2.29l-2.57,5.83a.85.85,0,0,0,.07.83A.82.82,0,0,0,14.49,35.67Zm3.31-6.38C18.16,28.35,19,28,20.86,28H36.1c1.91,0,2.71.33,3.08,1.32L41.24,34H15.76ZM37.18,48.74a.84.84,0,0,1-.4,1.11,18.19,18.19,0,0,1-8.28,2.22,18.31,18.31,0,0,1-8.28-2.21.84.84,0,0,1-.36-1.13A.82.82,0,0,1,21,48.38a16.64,16.64,0,0,0,7.52,2,16.72,16.72,0,0,0,7.54-2,.79.79,0,0,1,.64-.06.85.85,0,0,1,.49.42ZM55,34.17A3,3,0,0,0,54,32a3,3,0,0,0-2.27-.79H49.87c-.19,0-.71,0-3.44,1.49l-2.49-6.38c-.82-2.29-3.06-3.67-5.85-3.67H18.89a5.91,5.91,0,0,0-5.84,3.67l-2.49,6.38c-2.73-1.5-3.25-1.5-3.43-1.5H5.25A3,3,0,0,0,3,32a3.09,3.09,0,0,0-1,2.24c0,2.23,1.76,4.72,4.14,4.72H7.32A8.18,8.18,0,0,0,4.94,46l1.34,9.85a2,2,0,0,0,1.85,1.67h1v3.16a2.49,2.49,0,0,0,2.48,2.5h3.13a2.5,2.5,0,0,0,2.49-2.5V57.54H39.77v3.17a2.49,2.49,0,0,0,2.49,2.49h3.12a2.49,2.49,0,0,0,2.48-2.49V57.54h1a2,2,0,0,0,1.85-1.66l1.34-9.83A8.18,8.18,0,0,0,49.68,39h1.18c2.38-.05,4.14-2.54,4.14-4.83ZM15.58,60.7a.83.83,0,0,1-.83.83H11.63a.83.83,0,0,1-.83-.83V57.53h4.79Zm30.64,0a.83.83,0,0,1-.83.83H42.25a.83.83,0,0,1-.83-.83V57.53H46.2Zm.5-21.9,1.55,1.11a6.59,6.59,0,0,1,2.13,5.83l-1.34,9.82a.33.33,0,0,1-.2.27H8.13a.36.36,0,0,1-.21-.27L6.58,45.79a6.58,6.58,0,0,1,2.13-5.87l1.57-1.12a.84.84,0,0,0,.31-.93.83.83,0,0,0-.79-.58H6.14c-1.32,0-2.48-1.67-2.48-3.12a1.43,1.43,0,0,1,1.59-1.33H7.08a26.09,26.09,0,0,1,3.51,1.75.81.81,0,0,0,.68.06.83.83,0,0,0,.49-.48l2.82-7.28c.63-1.67,2.2-2.58,4.31-2.58H38.1a4.27,4.27,0,0,1,4.3,2.58l2.82,7.27a.79.79,0,0,0,.5.48.81.81,0,0,0,.68-.06,29.38,29.38,0,0,1,3.45-1.75h1.88a1.44,1.44,0,0,1,1.12.34,1.38,1.38,0,0,1,.49,1.06c0,1.37-1.13,3.06-2.48,3.06H47.22a.82.82,0,0,0-.5,1.51Z" fill="#fff" fill-rule="evenodd"/></g></mask><mask id="e1e26c91-bc9d-43d3-96f9-088f2fcb4c1f" x="117" y="16" width="53" height="47.2" maskUnits="userSpaceOnUse"><g id="a29ec785-9b29-4940-b014-cb702595c554" data-name="mask-4"><path id="a6796816-f166-41ff-bed8-d19644e6adc2" data-name="path-3" d="M128.2,40.65a4.07,4.07,0,0,0-4,4,4.36,4.36,0,0,0,1.16,2.85,3.83,3.83,0,0,0,5.75.06,4.05,4.05,0,0,0-2.88-6.89Zm1.65,5.73a2.36,2.36,0,0,1-1.65.75,2.29,2.29,0,0,1-1.66-.84,2.63,2.63,0,0,1-.71-1.7,2.4,2.4,0,0,1,2.37-2.31,2.49,2.49,0,0,1,2.36,2.42,2.44,2.44,0,0,1-.7,1.69Zm29-5.73a4,4,0,0,0-2.87,6.88,3.89,3.89,0,0,0,5.8-.06,4.36,4.36,0,0,0,1.16-2.85,4.07,4.07,0,0,0-4-4Zm2.36,4a2.59,2.59,0,0,1-.71,1.71,2.28,2.28,0,0,1-1.65.84,2.38,2.38,0,0,1-1.66-.75,2.43,2.43,0,0,1-.7-1.67,2.48,2.48,0,0,1,2.36-2.41,2.4,2.4,0,0,1,2.37,2.28Zm-31.67-9h28a.82.82,0,0,0,.69-.37.87.87,0,0,0,.07-.84l-2.56-5.82c-.89-2.34-3.31-2.34-4.61-2.34H135.9c-1.3,0-3.73,0-4.6,2.29l-2.57,5.83a.85.85,0,0,0,.07.83A.82.82,0,0,0,129.49,35.67Zm3.31-6.38c.36-.94,1.16-1.27,3.06-1.27H151.1c1.91,0,2.71.33,3.08,1.32L156.24,34H130.76Zm19.38,19.45a.84.84,0,0,1-.4,1.11,16.58,16.58,0,0,1-16.56,0,.84.84,0,0,1-.36-1.13.82.82,0,0,1,1.12-.35,15,15,0,0,0,15.06,0,.79.79,0,0,1,.64-.06.85.85,0,0,1,.49.42ZM170,34.17a3,3,0,0,0-1-2.2,3,3,0,0,0-2.27-.79h-1.88c-.19,0-.71,0-3.44,1.49l-2.49-6.38c-.82-2.29-3.06-3.67-5.85-3.67h-19.2a5.91,5.91,0,0,0-5.84,3.67l-2.49,6.38c-2.73-1.5-3.25-1.5-3.43-1.5h-1.88A3,3,0,0,0,118,32a3.09,3.09,0,0,0-1,2.24c0,2.23,1.76,4.72,4.14,4.72h1.18A8.18,8.18,0,0,0,119.94,46l1.34,9.85a2,2,0,0,0,1.85,1.67h1v3.16a2.49,2.49,0,0,0,2.48,2.5h3.13a2.5,2.5,0,0,0,2.49-2.5V57.54h22.52v3.17a2.49,2.49,0,0,0,2.49,2.49h3.12a2.49,2.49,0,0,0,2.48-2.49V57.54h1a2,2,0,0,0,1.85-1.66l1.34-9.83A8.18,8.18,0,0,0,164.68,39h1.18c2.38-.05,4.14-2.54,4.14-4.83ZM130.58,60.7a.83.83,0,0,1-.83.83h-3.12a.83.83,0,0,1-.83-.83V57.53h4.79Zm30.64,0a.83.83,0,0,1-.83.83h-3.14a.83.83,0,0,1-.83-.83V57.53h4.78Zm.5-21.9,1.55,1.11a6.59,6.59,0,0,1,2.13,5.83l-1.34,9.82a.33.33,0,0,1-.2.27H123.13a.36.36,0,0,1-.21-.27l-1.34-9.77a6.58,6.58,0,0,1,2.13-5.87l1.57-1.12a.84.84,0,0,0,.31-.93.83.83,0,0,0-.79-.58h-3.66c-1.32,0-2.48-1.67-2.48-3.12a1.43,1.43,0,0,1,1.59-1.33h1.83a26.09,26.09,0,0,1,3.51,1.75.81.81,0,0,0,.68.06.83.83,0,0,0,.49-.48l2.82-7.28c.63-1.67,2.2-2.58,4.31-2.58H153.1a4.27,4.27,0,0,1,4.3,2.58l2.82,7.27a.79.79,0,0,0,.5.48.81.81,0,0,0,.68-.06,29.38,29.38,0,0,1,3.45-1.75h1.88a1.44,1.44,0,0,1,1.12.34,1.38,1.38,0,0,1,.49,1.06c0,1.37-1.13,3.06-2.48,3.06h-3.64a.82.82,0,0,0-.5,1.51Z" fill="#fff" fill-rule="evenodd"/></g></mask><mask id="eb77a2ee-4648-42da-aafb-6f81b687823a" x="60" y="16" width="53" height="47.2" maskUnits="userSpaceOnUse"><g id="ba76ef1f-b77a-4fdb-a574-882bdec55152" data-name="mask-6"><path id="b2b3c021-a1b8-46cf-bc90-b84622025296" data-name="path-5" d="M71.2,40.65a4.07,4.07,0,0,0-4,4,4.36,4.36,0,0,0,1.16,2.85,3.83,3.83,0,0,0,5.75.06,4.05,4.05,0,0,0-2.88-6.89Zm1.65,5.73a2.36,2.36,0,0,1-1.65.75,2.29,2.29,0,0,1-1.66-.84,2.63,2.63,0,0,1-.71-1.7,2.4,2.4,0,0,1,2.37-2.31,2.49,2.49,0,0,1,2.36,2.42,2.44,2.44,0,0,1-.7,1.69Zm29-5.73a4,4,0,0,0-2.87,6.88,3.89,3.89,0,0,0,5.8-.06,4.36,4.36,0,0,0,1.16-2.85,4.07,4.07,0,0,0-4-4Zm2.36,4a2.59,2.59,0,0,1-.71,1.71,2.28,2.28,0,0,1-1.65.84,2.38,2.38,0,0,1-1.66-.75,2.43,2.43,0,0,1-.7-1.67,2.48,2.48,0,0,1,2.36-2.41,2.4,2.4,0,0,1,2.37,2.28Zm-31.67-9h28a.85.85,0,0,0,.7-.37.87.87,0,0,0,.06-.84l-2.56-5.82c-.89-2.34-3.31-2.34-4.61-2.34H78.9c-1.3,0-3.73,0-4.6,2.29l-2.57,5.83a.85.85,0,0,0,.06.83.83.83,0,0,0,.7.42Zm3.31-6.38C76.16,28.35,77,28,78.86,28H94.1c1.91,0,2.71.33,3.08,1.32L99.24,34H73.76ZM113,34.17a3,3,0,0,0-1-2.2,3,3,0,0,0-2.27-.79h-1.88c-.19,0-.71,0-3.44,1.49l-2.49-6.38c-.82-2.29-3.06-3.67-5.85-3.67H76.89a5.91,5.91,0,0,0-5.84,3.67l-2.49,6.38c-2.73-1.5-3.24-1.5-3.43-1.5H63.25A3,3,0,0,0,61,32a3.09,3.09,0,0,0-1,2.24c0,2.23,1.76,4.72,4.14,4.72h1.18A8.18,8.18,0,0,0,62.94,46l1.34,9.85a2,2,0,0,0,1.85,1.66h1v3.16a2.49,2.49,0,0,0,2.48,2.5h3.13a2.5,2.5,0,0,0,2.49-2.5V57.54H97.77v3.17a2.49,2.49,0,0,0,2.49,2.49h3.12a2.49,2.49,0,0,0,2.48-2.49V57.54h1a2,2,0,0,0,1.85-1.66l1.34-9.83A8.18,8.18,0,0,0,107.68,39h1.18c2.38-.05,4.14-2.54,4.14-4.83ZM73.58,60.7a.83.83,0,0,1-.83.83H69.63a.83.83,0,0,1-.83-.83V57.53h4.79Zm30.64,0a.83.83,0,0,1-.83.83h-3.14a.83.83,0,0,1-.83-.83V57.53h4.78Zm.5-21.9,1.55,1.11a6.59,6.59,0,0,1,2.13,5.83l-1.34,9.82a.33.33,0,0,1-.2.27H66.13a.36.36,0,0,1-.21-.27l-1.34-9.77a6.58,6.58,0,0,1,2.13-5.87l1.57-1.12a.84.84,0,0,0,.31-.93.83.83,0,0,0-.79-.58H64.14c-1.32,0-2.48-1.67-2.48-3.12a1.43,1.43,0,0,1,1.59-1.33h1.83a26.09,26.09,0,0,1,3.51,1.75.83.83,0,0,0,.69.06.85.85,0,0,0,.49-.49l2.82-7.28c.63-1.67,2.2-2.58,4.3-2.58H96.11a4.27,4.27,0,0,1,4.3,2.58l2.82,7.28a.85.85,0,0,0,.5.48.82.82,0,0,0,.68-.07,31,31,0,0,1,3.45-1.75h1.88a1.48,1.48,0,0,1,1.12.34,1.45,1.45,0,0,1,.48,1.07c0,1.37-1.13,3.06-2.48,3.06h-3.64a.82.82,0,0,0-.5,1.51ZM95.61,50.17a.84.84,0,0,1-.83.84H78.22a.84.84,0,0,1-.83-.84.83.83,0,0,1,.83-.83H94.78A.83.83,0,0,1,95.61,50.17Z" fill="#fff" fill-rule="evenodd"/></g></mask></defs><g id="ad25ceff-63f4-47a0-9fb2-c77c77a4dbd1" data-name="--About-us-v...who-knows..."><g id="f446877c-8fb8-4bc3-88fb-098241bdfc39" data-name="D about us page2"><g id="b3677799-1e53-4122-b688-e9369eb48763" data-name="what-we-do-final"><g id="f972d422-2493-48f3-a64c-62d4c2186fb2" data-name="icon what we do inventory"><rect id="b7784908-6efd-4838-af8e-a301768d4683" data-name="Rectangle" width="172" height="64" fill="#fff" fill-opacity="0.01" opacity="0.39" style="isolation:isolate"/><g id="edced09a-ef23-456c-97a9-1ed5d47c5709" data-name="01.-icons/2.-brand/car-happy"><g id="b9b35337-ff4a-4191-bf9b-6377f69eb4a8" data-name="car-happy"><path id="fd77adcf-61a7-44ae-9a78-f057c3ad1e68" data-name="path-1" d="M13.2,40.65a4.07,4.07,0,0,0-4,4,4.36,4.36,0,0,0,1.16,2.85,3.83,3.83,0,0,0,5.75.06,4.05,4.05,0,0,0-2.88-6.89Zm1.65,5.73a2.36,2.36,0,0,1-1.65.75,2.29,2.29,0,0,1-1.66-.84,2.63,2.63,0,0,1-.71-1.7,2.4,2.4,0,0,1,2.37-2.31,2.49,2.49,0,0,1,2.36,2.42,2.44,2.44,0,0,1-.7,1.69ZM43.8,40.65a4,4,0,0,0-2.87,6.88,3.89,3.89,0,0,0,5.8-.06,4.36,4.36,0,0,0,1.16-2.85,4.07,4.07,0,0,0-4-4Zm2.36,4a2.59,2.59,0,0,1-.71,1.71,2.28,2.28,0,0,1-1.65.84,2.38,2.38,0,0,1-1.66-.75,2.43,2.43,0,0,1-.7-1.67,2.48,2.48,0,0,1,2.36-2.41,2.4,2.4,0,0,1,2.37,2.28Zm-31.67-9h28a.82.82,0,0,0,.69-.37.87.87,0,0,0,.07-.84l-2.56-5.82c-.89-2.34-3.31-2.34-4.61-2.34H20.9c-1.3,0-3.73,0-4.6,2.29l-2.57,5.83a.85.85,0,0,0,.07.83A.82.82,0,0,0,14.49,35.67Zm3.31-6.38C18.16,28.35,19,28,20.86,28H36.1c1.91,0,2.71.33,3.08,1.32L41.24,34H15.76ZM37.18,48.74a.84.84,0,0,1-.4,1.11,18.19,18.19,0,0,1-8.28,2.22,18.31,18.31,0,0,1-8.28-2.21.84.84,0,0,1-.36-1.13A.82.82,0,0,1,21,48.38a16.64,16.64,0,0,0,7.52,2,16.72,16.72,0,0,0,7.54-2,.79.79,0,0,1,.64-.06.85.85,0,0,1,.49.42ZM55,34.17A3,3,0,0,0,54,32a3,3,0,0,0-2.27-.79H49.87c-.19,0-.71,0-3.44,1.49l-2.49-6.38c-.82-2.29-3.06-3.67-5.85-3.67H18.89a5.91,5.91,0,0,0-5.84,3.67l-2.49,6.38c-2.73-1.5-3.25-1.5-3.43-1.5H5.25A3,3,0,0,0,3,32a3.09,3.09,0,0,0-1,2.24c0,2.23,1.76,4.72,4.14,4.72H7.32A8.18,8.18,0,0,0,4.94,46l1.34,9.85a2,2,0,0,0,1.85,1.67h1v3.16a2.49,2.49,0,0,0,2.48,2.5h3.13a2.5,2.5,0,0,0,2.49-2.5V57.54H39.77v3.17a2.49,2.49,0,0,0,2.49,2.49h3.12a2.49,2.49,0,0,0,2.48-2.49V57.54h1a2,2,0,0,0,1.85-1.66l1.34-9.83A8.18,8.18,0,0,0,49.68,39h1.18c2.38-.05,4.14-2.54,4.14-4.83ZM15.58,60.7a.83.83,0,0,1-.83.83H11.63a.83.83,0,0,1-.83-.83V57.53h4.79Zm30.64,0a.83.83,0,0,1-.83.83H42.25a.83.83,0,0,1-.83-.83V57.53H46.2Zm.5-21.9,1.55,1.11a6.59,6.59,0,0,1,2.13,5.83l-1.34,9.82a.33.33,0,0,1-.2.27H8.13a.36.36,0,0,1-.21-.27L6.58,45.79a6.58,6.58,0,0,1,2.13-5.87l1.57-1.12a.84.84,0,0,0,.31-.93.83.83,0,0,0-.79-.58H6.14c-1.32,0-2.48-1.67-2.48-3.12a1.43,1.43,0,0,1,1.59-1.33H7.08a26.09,26.09,0,0,1,3.51,1.75.81.81,0,0,0,.68.06.83.83,0,0,0,.49-.48l2.82-7.28c.63-1.67,2.2-2.58,4.31-2.58H38.1a4.27,4.27,0,0,1,4.3,2.58l2.82,7.27a.79.79,0,0,0,.5.48.81.81,0,0,0,.68-.06,29.38,29.38,0,0,1,3.45-1.75h1.88a1.44,1.44,0,0,1,1.12.34,1.38,1.38,0,0,1,.49,1.06c0,1.37-1.13,3.06-2.48,3.06H47.22a.82.82,0,0,0-.5,1.51Z" fill="#fff"/></g><g mask="url(#f1d7a655-ee29-425c-b552-d0cfdd68fd55)"><g id="a815440e-a22c-4f36-92b3-b4d6e5b71d6f" data-name="Group"><g id="f4b65550-2b11-47cd-a944-da62d49c017f" data-name="04.-color-overrides/1.-brand/blue-900"><rect id="b696cae1-6518-4457-8e23-073e528ba951" data-name="color" x="2" y="16" width="53" height="47" fill="#053361"/></g></g></g></g><g id="a110a71d-616e-419a-90cc-751d52482ee3" data-name="01.-icons/2.-brand/car-happy-copy"><g id="aac60a55-95f2-42a0-95df-7fb5de067e6c" data-name="car-happy"><path id="f341e3a4-988e-4949-9c8a-4f1f1c677fc3" data-name="path-3" d="M128.2,40.65a4.07,4.07,0,0,0-4,4,4.36,4.36,0,0,0,1.16,2.85,3.83,3.83,0,0,0,5.75.06,4.05,4.05,0,0,0-2.88-6.89Zm1.65,5.73a2.36,2.36,0,0,1-1.65.75,2.29,2.29,0,0,1-1.66-.84,2.63,2.63,0,0,1-.71-1.7,2.4,2.4,0,0,1,2.37-2.31,2.49,2.49,0,0,1,2.36,2.42,2.44,2.44,0,0,1-.7,1.69Zm29-5.73a4,4,0,0,0-2.87,6.88,3.89,3.89,0,0,0,5.8-.06,4.36,4.36,0,0,0,1.16-2.85,4.07,4.07,0,0,0-4-4Zm2.36,4a2.59,2.59,0,0,1-.71,1.71,2.28,2.28,0,0,1-1.65.84,2.38,2.38,0,0,1-1.66-.75,2.43,2.43,0,0,1-.7-1.67,2.48,2.48,0,0,1,2.36-2.41,2.4,2.4,0,0,1,2.37,2.28Zm-31.67-9h28a.82.82,0,0,0,.69-.37.87.87,0,0,0,.07-.84l-2.56-5.82c-.89-2.34-3.31-2.34-4.61-2.34H135.9c-1.3,0-3.73,0-4.6,2.29l-2.57,5.83a.85.85,0,0,0,.07.83A.82.82,0,0,0,129.49,35.67Zm3.31-6.38c.36-.94,1.16-1.27,3.06-1.27H151.1c1.91,0,2.71.33,3.08,1.32L156.24,34H130.76Zm19.38,19.45a.84.84,0,0,1-.4,1.11,16.58,16.58,0,0,1-16.56,0,.84.84,0,0,1-.36-1.13.82.82,0,0,1,1.12-.35,15,15,0,0,0,15.06,0,.79.79,0,0,1,.64-.06.85.85,0,0,1,.49.42ZM170,34.17a3,3,0,0,0-1-2.2,3,3,0,0,0-2.27-.79h-1.88c-.19,0-.71,0-3.44,1.49l-2.49-6.38c-.82-2.29-3.06-3.67-5.85-3.67h-19.2a5.91,5.91,0,0,0-5.84,3.67l-2.49,6.38c-2.73-1.5-3.25-1.5-3.43-1.5h-1.88A3,3,0,0,0,118,32a3.09,3.09,0,0,0-1,2.24c0,2.23,1.76,4.72,4.14,4.72h1.18A8.18,8.18,0,0,0,119.94,46l1.34,9.85a2,2,0,0,0,1.85,1.67h1v3.16a2.49,2.49,0,0,0,2.48,2.5h3.13a2.5,2.5,0,0,0,2.49-2.5V57.54h22.52v3.17a2.49,2.49,0,0,0,2.49,2.49h3.12a2.49,2.49,0,0,0,2.48-2.49V57.54h1a2,2,0,0,0,1.85-1.66l1.34-9.83A8.18,8.18,0,0,0,164.68,39h1.18c2.38-.05,4.14-2.54,4.14-4.83ZM130.58,60.7a.83.83,0,0,1-.83.83h-3.12a.83.83,0,0,1-.83-.83V57.53h4.79Zm30.64,0a.83.83,0,0,1-.83.83h-3.14a.83.83,0,0,1-.83-.83V57.53h4.78Zm.5-21.9,1.55,1.11a6.59,6.59,0,0,1,2.13,5.83l-1.34,9.82a.33.33,0,0,1-.2.27H123.13a.36.36,0,0,1-.21-.27l-1.34-9.77a6.58,6.58,0,0,1,2.13-5.87l1.57-1.12a.84.84,0,0,0,.31-.93.83.83,0,0,0-.79-.58h-3.66c-1.32,0-2.48-1.67-2.48-3.12a1.43,1.43,0,0,1,1.59-1.33h1.83a26.09,26.09,0,0,1,3.51,1.75.81.81,0,0,0,.68.06.83.83,0,0,0,.49-.48l2.82-7.28c.63-1.67,2.2-2.58,4.31-2.58H153.1a4.27,4.27,0,0,1,4.3,2.58l2.82,7.27a.79.79,0,0,0,.5.48.81.81,0,0,0,.68-.06,29.38,29.38,0,0,1,3.45-1.75h1.88a1.44,1.44,0,0,1,1.12.34,1.38,1.38,0,0,1,.49,1.06c0,1.37-1.13,3.06-2.48,3.06h-3.64a.82.82,0,0,0-.5,1.51Z" fill="#fff"/></g><g mask="url(#e1e26c91-bc9d-43d3-96f9-088f2fcb4c1f)"><g id="bd80de3b-9d5c-4592-a46b-c120b3253cc7" data-name="Group"><g id="ae557e6f-d856-42a8-9d50-26b20c6edfc6" data-name="04.-color-overrides/1.-brand/blue-900"><rect id="a79bd10b-bbd0-4d3e-b6fe-cb2b36b36bf3" data-name="color" x="117" y="16" width="53" height="47" fill="#053361"/></g></g></g></g><g id="fa31a49e-489c-4c74-8c3c-da118f88a47f" data-name="01.-icons/2.-brand/car-neutral"><g id="a0a73ce9-860b-42b1-aa97-11c640594171" data-name="car-neutral"><path id="b74a88f6-41d1-4675-a10e-62b2edbb9ab7" data-name="path-5" d="M71.2,40.65a4.07,4.07,0,0,0-4,4,4.36,4.36,0,0,0,1.16,2.85,3.83,3.83,0,0,0,5.75.06,4.05,4.05,0,0,0-2.88-6.89Zm1.65,5.73a2.36,2.36,0,0,1-1.65.75,2.29,2.29,0,0,1-1.66-.84,2.63,2.63,0,0,1-.71-1.7,2.4,2.4,0,0,1,2.37-2.31,2.49,2.49,0,0,1,2.36,2.42,2.44,2.44,0,0,1-.7,1.69Zm29-5.73a4,4,0,0,0-2.87,6.88,3.89,3.89,0,0,0,5.8-.06,4.36,4.36,0,0,0,1.16-2.85,4.07,4.07,0,0,0-4-4Zm2.36,4a2.59,2.59,0,0,1-.71,1.71,2.28,2.28,0,0,1-1.65.84,2.38,2.38,0,0,1-1.66-.75,2.43,2.43,0,0,1-.7-1.67,2.48,2.48,0,0,1,2.36-2.41,2.4,2.4,0,0,1,2.37,2.28Zm-31.67-9h28a.85.85,0,0,0,.7-.37.87.87,0,0,0,.06-.84l-2.56-5.82c-.89-2.34-3.31-2.34-4.61-2.34H78.9c-1.3,0-3.73,0-4.6,2.29l-2.57,5.83a.85.85,0,0,0,.06.83.83.83,0,0,0,.7.42Zm3.31-6.38C76.16,28.35,77,28,78.86,28H94.1c1.91,0,2.71.33,3.08,1.32L99.24,34H73.76ZM113,34.17a3,3,0,0,0-1-2.2,3,3,0,0,0-2.27-.79h-1.88c-.19,0-.71,0-3.44,1.49l-2.49-6.38c-.82-2.29-3.06-3.67-5.85-3.67H76.89a5.91,5.91,0,0,0-5.84,3.67l-2.49,6.38c-2.73-1.5-3.24-1.5-3.43-1.5H63.25A3,3,0,0,0,61,32a3.09,3.09,0,0,0-1,2.24c0,2.23,1.76,4.72,4.14,4.72h1.18A8.18,8.18,0,0,0,62.94,46l1.34,9.85a2,2,0,0,0,1.85,1.66h1v3.16a2.49,2.49,0,0,0,2.48,2.5h3.13a2.5,2.5,0,0,0,2.49-2.5V57.54H97.77v3.17a2.49,2.49,0,0,0,2.49,2.49h3.12a2.49,2.49,0,0,0,2.48-2.49V57.54h1a2,2,0,0,0,1.85-1.66l1.34-9.83A8.18,8.18,0,0,0,107.68,39h1.18c2.38-.05,4.14-2.54,4.14-4.83ZM73.58,60.7a.83.83,0,0,1-.83.83H69.63a.83.83,0,0,1-.83-.83V57.53h4.79Zm30.64,0a.83.83,0,0,1-.83.83h-3.14a.83.83,0,0,1-.83-.83V57.53h4.78Zm.5-21.9,1.55,1.11a6.59,6.59,0,0,1,2.13,5.83l-1.34,9.82a.33.33,0,0,1-.2.27H66.13a.36.36,0,0,1-.21-.27l-1.34-9.77a6.58,6.58,0,0,1,2.13-5.87l1.57-1.12a.84.84,0,0,0,.31-.93.83.83,0,0,0-.79-.58H64.14c-1.32,0-2.48-1.67-2.48-3.12a1.43,1.43,0,0,1,1.59-1.33h1.83a26.09,26.09,0,0,1,3.51,1.75.83.83,0,0,0,.69.06.85.85,0,0,0,.49-.49l2.82-7.28c.63-1.67,2.2-2.58,4.3-2.58H96.11a4.27,4.27,0,0,1,4.3,2.58l2.82,7.28a.85.85,0,0,0,.5.48.82.82,0,0,0,.68-.07,31,31,0,0,1,3.45-1.75h1.88a1.48,1.48,0,0,1,1.12.34,1.45,1.45,0,0,1,.48,1.07c0,1.37-1.13,3.06-2.48,3.06h-3.64a.82.82,0,0,0-.5,1.51ZM95.61,50.17a.84.84,0,0,1-.83.84H78.22a.84.84,0,0,1-.83-.84.83.83,0,0,1,.83-.83H94.78A.83.83,0,0,1,95.61,50.17Z" fill="#fff"/></g><g mask="url(#eb77a2ee-4648-42da-aafb-6f81b687823a)"><g id="ab07bafa-8c11-45f7-8c72-eabd9ac3b4a4" data-name="Group"><g id="fa0b2065-47f1-4e54-97cd-05a10a43557c" data-name="04.-color-overrides/1.-brand/blue-900"><rect id="b46a2ace-4284-4b25-b335-77c9df70c66b" data-name="color" x="60" y="16" width="53" height="47" fill="#053361"/></g></g></g></g></g></g></g></g></svg>