<svg id="e6cefcaf-da91-4fe2-a927-5bc0143148d6" data-name="Layer 1" xmlns="http://www.w3.org/2000/svg" xmlns:xlink="http://www.w3.org/1999/xlink" width="172" height="64" viewBox="0 0 172 64"><defs><mask id="ae6b2574-bb07-40de-8443-dae085bdaa37" x="12" y="15" width="48" height="48" maskUnits="userSpaceOnUse"><g id="bbc716ab-ff7d-43b5-ad60-8857aba74d60" data-name="mask-2"><path id="b2f7a01a-73d9-44af-b537-18aa31eaef5a" data-name="path-1" d="M56,50.33a17.79,17.79,0,0,0-12-6.69,15.37,15.37,0,0,0,7.59-13.23,15.59,15.59,0,0,0-.35-3.27A15.45,15.45,0,0,0,31,15.89l-.4.15a15.37,15.37,0,0,0-9.74,12.3,16,16,0,0,0-.16,2.07,15.41,15.41,0,0,0,7.58,13.23,18.16,18.16,0,0,0-12,6.69,8.85,8.85,0,0,0-1.93,5.46v2.59a.75.75,0,0,0,.45.68C15,59.25,23.51,63,36.11,63c13.94,0,21-3.81,21.26-4a.76.76,0,0,0,.38-.66V55.79A8.69,8.69,0,0,0,56,50.33ZM49.6,26.79l-.28.09-.43.12-.68.13-.42.08-.75.1h-.35c-.38,0-.76.05-1.1.05a8.18,8.18,0,0,1-1.19-.06,1.75,1.75,0,0,1-.4,0,3.57,3.57,0,0,1-.75-.11l-.47-.05c-.22-.05-.45-.09-.67-.15l-.49-.15-.63-.2-.47-.18s-.41-.15-.61-.24L39.45,26l-.57-.28-.45-.27-.53-.33-.45-.32A4.1,4.1,0,0,1,37,24.4l-.41-.34-.46-.4-.39-.37-.41-.44-.36-.4a4.25,4.25,0,0,1-.37-.47l-.34-.43c-.1-.14-.22-.33-.34-.51a4.92,4.92,0,0,1-.29-.46c-.09-.17-.21-.35-.3-.53s-.17-.31-.25-.48L32.78,19l-.21-.5-.21-.59-.17-.52-.08-.28a13.94,13.94,0,0,1,17.49,9.7ZM29.89,18a2.79,2.79,0,0,1-.07.4l-.06.26-.23.83a6.15,6.15,0,0,1-.29.82c0,.08-.07.15-.09.23l-.23.56-.15.27c-.08.18-.17.35-.26.51l-.15.26-.31.51-.15.22c-.16.23-.33.45-.5.68s-.36.45-.56.65l-.19.2-.41.41L26,25l-.42.36-.26.2-.46.36-.23.15a5,5,0,0,1-.75.47h-.06l-.71.37-.27.13-.36.17A13.93,13.93,0,0,1,29.89,18Zm-7.76,12.4A13.71,13.71,0,0,1,22.21,29a.91.91,0,0,0,.35-.12l.32-.13c.22-.09.45-.2.66-.3l.23-.11c.3-.15.6-.3.87-.46l.13-.08.69-.45.26-.18.51-.39.27-.23.48-.4.24-.23.5-.5.18-.19a5.23,5.23,0,0,0,.61-.75l.09-.11c.17-.21.33-.43.48-.64l.17-.28.35-.54.17-.3.29-.55.15-.31s.19-.42.27-.63l.11-.26a7.91,7.91,0,0,0,.3-.9.64.64,0,0,0,.06-.18c.06-.22.13-.43.19-.64l0,.09.17.38c.11.26.22.52.34.75l.23.43c.12.23.25.45.38.66l.27.42.41.6.3.41.48.58.31.37.55.56.31.3q.36.33.75.63l.2.17,1,.75.29.18.75.47.4.22.69.35.46.2.67.28.49.17.7.23.49.12.75.17.48.1.84.1.41.05c.43,0,.85.05,1.28.05a9.56,9.56,0,0,0,1.21-.05l.38,0a4.72,4.72,0,0,0,.83-.11l.45-.07.75-.17a3.6,3.6,0,0,0,.44-.12l.25-.06A13.9,13.9,0,0,1,50,30.42a14,14,0,0,1-27.93,0Zm18.24,14.8a4.77,4.77,0,0,1-8.47,0,15.21,15.21,0,0,0,8.46,0ZM56.26,57.92A33.32,33.32,0,0,1,50,60V55.75a.76.76,0,0,0-1.51,0v4.6A62.17,62.17,0,0,1,36.12,61.5a60.15,60.15,0,0,1-11.83-1.17v-4.6a.76.76,0,0,0-1.51,0V60a48.14,48.14,0,0,1-7-2.14V55.79a7.36,7.36,0,0,1,1.61-4.5A16.9,16.9,0,0,1,30.15,45a6.28,6.28,0,0,0,11.93,0,16.55,16.55,0,0,1,12.69,6.29,7.17,7.17,0,0,1,1.51,4.5Z" fill="#fff" fill-rule="evenodd"/></g></mask><mask id="b06c6435-e2d5-4848-bcdc-6fc65c9ee72f" x="110" y="15" width="48" height="48" maskUnits="userSpaceOnUse"><g id="a2617d0e-259d-46bc-a8f1-a25c7552eaaf" data-name="mask-4"><path id="a9b14014-438f-4c65-bd1e-c1c989b51c6c" data-name="path-3" d="M134.79,15A17.36,17.36,0,0,0,118,28.15a5.77,5.77,0,0,0,3.56,10.77,11.85,11.85,0,0,1-.6-1.42h-.15a4.28,4.28,0,1,1,0-8.55H121a12.17,12.17,0,0,1,.55-1.46,5.49,5.49,0,0,0-.7,0,5.64,5.64,0,0,0-1.08.1,15.75,15.75,0,0,1,30.76,4.72,7.54,7.54,0,0,1-7.5,7.5h-5.18a1.87,1.87,0,0,0-1.72-1.14h-2.26a1.89,1.89,0,0,0,0,3.75h2.26a1.88,1.88,0,0,0,1.72-1.13H143a9,9,0,0,0,9-9A17.25,17.25,0,0,0,134.78,15Zm1.33,25.91h-2.25a.39.39,0,0,1,0-.75h2.25a.39.39,0,0,1,0,.75Zm16.44,10.42a16.21,16.21,0,0,0-10.71-6.12,14.13,14.13,0,0,0,6.75-12,14.52,14.52,0,0,0-.32-3A14.22,14.22,0,0,0,134.46,19a14.4,14.4,0,0,0-4.73.83l-.37.13A14.09,14.09,0,0,0,127.1,45.2a16.53,16.53,0,0,0-10.84,6.13,8.15,8.15,0,0,0-1.76,5v2.37a.73.73,0,0,0,.44.67A50.68,50.68,0,0,0,134.44,63c12.73,0,19.13-3.49,19.43-3.64a.73.73,0,0,0,.38-.65V56.34a8,8,0,0,0-1.67-5Zm-5.93-21.51-.22.08L146,30c-.2.06-.41.1-.61.14l-.38.07a4.74,4.74,0,0,1-.67.08l-.32,0h-1s-.75,0-1.09,0a1,1,0,0,1-.36,0,5.74,5.74,0,0,1-.71-.09l-.41-.09c-.21-.05-.42-.08-.62-.14l-.43-.14-.57-.17-.43-.17-.54-.18-.43-.21-.5-.26-.4-.24-.47-.3-.4-.27-.45-.34-.38-.32a4.33,4.33,0,0,1-.4-.36l-.36-.33-.39-.38-.31-.37-.35-.42-.3-.39-.3-.45-.27-.43-.27-.48-.22-.43s-.17-.34-.23-.51-.15-.3-.2-.46l-.19-.53-.15-.48a.41.41,0,0,0-.06-.22,12.57,12.57,0,0,1,15.74,8.74ZM128.7,21.93a.29.29,0,0,1,0,.13,10.65,10.65,0,0,1-.32,1.2l0,.15c-.12.35-.26.69-.41,1a.8.8,0,0,1-.07.2c-.18.36-.36.7-.57,1.05l-.15.2a10.61,10.61,0,0,1-1.5,1.91l-.15.17a11.17,11.17,0,0,1-.9.75l-.16.13c-.3.22-.61.44-.92.63l-.13.08c-.35.2-.71.39-1.07.56l-.12.05a12.58,12.58,0,0,1,6.52-8.23Zm-6.88,11.25a10.48,10.48,0,0,1,.07-1.25l.28-.11.3-.12.62-.28.24-.11a6.66,6.66,0,0,0,.75-.42l.15-.09.6-.38.24-.19.47-.34.24-.2.43-.39.23-.21.51-.51.09-.1q.3-.32.57-.66l.15-.21c.13-.14.24-.32.37-.48a1.92,1.92,0,0,0,.17-.27c0-.09.21-.31.3-.47l.16-.28.29-.54.12-.23a7.91,7.91,0,0,0,.35-.79.58.58,0,0,1,.06-.17c.08-.22.17-.45.23-.67l.09-.29a2.07,2.07,0,0,1,.1-.33c.15.35.31.68.48,1l.17.3a5.07,5.07,0,0,0,.39.67l.22.36.4.59.28.35.43.53.3.33c.15.17.32.34.48.5l.3.3c.17.17.38.33.56.49l.27.23.86.64h.05c.31.21.63.4,1,.58l.3.17a7.37,7.37,0,0,0,.69.34l.37.17.65.27.43.15a6.76,6.76,0,0,0,.65.2l.45.12.68.15.43.07c.26.06.51.08.75.12l.38,0c.37,0,.75.05,1.16.05a7.53,7.53,0,0,0,1.09-.05l.35,0a4.8,4.8,0,0,0,.75-.09l.39-.07.75-.15.37-.1.19-.05a12.07,12.07,0,0,1,.15,1.9,12.64,12.64,0,0,1-25.28,0Zm16.37,13.6a4.25,4.25,0,0,1-7.45,0,13.76,13.76,0,0,0,3.72.53,14.24,14.24,0,0,0,3.73-.53ZM152.7,58.24a29.2,29.2,0,0,1-5.6,1.86V56.31a.75.75,0,0,0-1.5,0v4.14a56.29,56.29,0,0,1-11.14,1,54.8,54.8,0,0,1-10.69-1V56.3a.75.75,0,0,0-1.5,0v3.81a42.87,42.87,0,0,1-6.28-1.9V56.33a6.71,6.71,0,0,1,1.44-4.08A15.28,15.28,0,0,1,129,46.54a5.76,5.76,0,0,0,10.94,0,15,15,0,0,1,11.45,5.71,6.56,6.56,0,0,1,1.32,4.09Z" fill="#fff" fill-rule="evenodd"/></g></mask><mask id="a97f7860-cb73-4b43-9bf5-b9be58bd3cd6" x="62" y="15" width="48" height="48" maskUnits="userSpaceOnUse"><g id="e699d09c-33d1-4179-96ac-e5fc1f741e83" data-name="mask-6"><path id="a09d1b2b-01be-4c3d-a073-33d8a1083ce7" data-name="path-5" d="M106,50.33a17.74,17.74,0,0,0-6.12-4.95,5.56,5.56,0,0,0,4.24-4.18.78.78,0,0,0,0-.5c-1.17-2.45-2-7.62-2.45-10.81a16,16,0,0,0-.34-2.75A15.45,15.45,0,0,0,81,15.89l-.4.15a15.37,15.37,0,0,0-9.74,12.3,16,16,0,0,0-.16,2.07v.3c-.22,2.73-.81,7.27-2.26,10a.72.72,0,0,0-.07.54,5.57,5.57,0,0,0,4.11,4.14,18,18,0,0,0-6.25,5,8.85,8.85,0,0,0-1.93,5.46v2.59a.75.75,0,0,0,.45.68C65,59.25,73.51,63,86.11,63c13.94,0,21-3.81,21.26-4a.76.76,0,0,0,.38-.66V55.79A8.69,8.69,0,0,0,106,50.33ZM72.28,29l.3-.12.32-.12c.23-.09.45-.2.66-.3l.23-.11c.3-.15.6-.3.87-.46l.13-.08.69-.45.26-.18.51-.4.27-.22.49-.41.24-.22.49-.5a1.62,1.62,0,0,0,.18-.19,6,6,0,0,0,.62-.75l.09-.11c.16-.21.32-.43.47-.65l.17-.27.35-.54.17-.3.29-.55.15-.32s.19-.41.27-.62l.12-.26c.1-.3.22-.6.3-.9l.06-.18c.06-.23.13-.43.18-.65l0,.1.17.38a7.41,7.41,0,0,0,.35.75l.22.43c.12.23.25.45.38.65l.27.43.41.6.31.41.47.57.32.38.55.55.3.3a9.06,9.06,0,0,0,.75.64l.2.17,1,.75.29.17c.25.17.51.33.75.48l.4.22.7.35.45.2.68.28.48.17.7.22.49.13.75.17.48.09c.28.05.56.08.84.11l.42,0c.42,0,.84.06,1.28.06a7.84,7.84,0,0,0,1.2-.06l.38,0a4.6,4.6,0,0,0,.83-.11l.45-.07c.25-.06.5-.11.75-.18a3.15,3.15,0,0,0,.44-.11l.19,0c0,.45.12,1,.23,1.71v.4a14,14,0,0,1-27.93.35c.08-.75.1-1.38.11-1.78ZM86.12,47.81a4.77,4.77,0,0,1-4.22-2.59,15.15,15.15,0,0,0,4.22.6,15.57,15.57,0,0,0,4.24-.6,4.79,4.79,0,0,1-4.24,2.58ZM84,48.93a5,5,0,0,1-6.23-3.7A21.58,21.58,0,0,1,80.17,45,6.25,6.25,0,0,0,84,48.93ZM92.1,45a17.76,17.76,0,0,1,2.41.26,5,5,0,0,1-6.25,3.67A6.27,6.27,0,0,0,92.1,45Zm4.22-.93h-.1A18.48,18.48,0,0,0,94,43.65,15.42,15.42,0,0,0,100.88,35a30.38,30.38,0,0,0,1.69,6.07c-1,3.29-4.69,3.15-6.25,2.94ZM99.6,26.82l-.28.09-.43.11-.68.15-.42.07-.75.1h-.35c-.38,0-.76.05-1.1.05a9.8,9.8,0,0,1-1.19-.05,1.33,1.33,0,0,1-.4,0,3.57,3.57,0,0,1-.75-.11l-.47-.07L92.11,27l-.49-.15L91,26.61l-.47-.18s-.41-.15-.61-.24L89.45,26l-.57-.28-.45-.27-.53-.33-.45-.32A4.1,4.1,0,0,1,87,24.4l-.41-.34-.46-.4-.39-.37-.41-.44-.36-.4a4.25,4.25,0,0,1-.37-.47l-.34-.43L83.88,21a4.92,4.92,0,0,1-.29-.46c-.09-.17-.21-.35-.3-.53s-.17-.31-.25-.48L82.78,19l-.21-.5-.21-.59-.17-.52-.08-.28a13.94,13.94,0,0,1,17.49,9.7ZM79.89,18a2.79,2.79,0,0,1-.07.4l-.06.26-.23.83a6.15,6.15,0,0,1-.29.82c0,.08-.07.15-.09.23l-.23.56-.15.27c-.08.18-.17.35-.26.51l-.15.26-.31.51-.15.22c-.16.23-.33.45-.5.68s-.36.45-.56.65l-.19.2-.41.41L76,25l-.42.36-.26.2-.46.36-.23.15a5,5,0,0,1-.75.47h-.06l-.71.37-.27.13-.36.17A13.93,13.93,0,0,1,79.89,18ZM69.83,41.12a21.27,21.27,0,0,0,1.71-5.57,15.47,15.47,0,0,0,6.68,8.09,18,18,0,0,0-2.19.41c-1.58.2-5.22.33-6.21-2.92Zm36.42,16.8A33.46,33.46,0,0,1,100,60V55.75a.76.76,0,0,0-1.51,0v4.6A62.17,62.17,0,0,1,86.12,61.5a60.15,60.15,0,0,1-11.83-1.17v-4.6a.76.76,0,0,0-1.51,0V60a48.14,48.14,0,0,1-7-2.14V55.79a7.36,7.36,0,0,1,1.61-4.5,16.59,16.59,0,0,1,9-5.73,6.4,6.4,0,0,0,3.82,4.56,6.62,6.62,0,0,0,2.56.52,6.21,6.21,0,0,0,3.47-1,6.18,6.18,0,0,0,3.46,1,6.68,6.68,0,0,0,2.58-.52A6.39,6.39,0,0,0,96,45.56a16.17,16.17,0,0,1,8.81,5.73,7.17,7.17,0,0,1,1.51,4.5Z" fill="#fff" fill-rule="evenodd"/></g></mask></defs><g id="bdabcc37-0178-44d8-ad4e-184755a2f752" data-name="--About-us-v...who-knows..."><g id="f30774ac-b14c-4e6f-a6ed-815b80b8fbdc" data-name="D about us page2"><g id="a944e420-5db3-43f0-a4d8-eb2cb434b794" data-name="what-we-do-final"><g id="a2757847-9262-48bf-ac3c-6f27b0394395" data-name="icon employee"><rect id="efb4900d-4cc1-4c82-87c2-cce4f76979c9" data-name="icon-lock-up-bg" width="172" height="64" fill="#fff" fill-opacity="0.01" opacity="0.39" style="isolation:isolate"/><g id="ab607829-bbc3-41b7-822d-93b7fc899811" data-name="01.-icons/2.-brand/customer-male"><g id="fa497caf-16db-414b-baf4-6249314fd06c" data-name="customer-male"><path id="b4b7bfde-7cd1-4d9f-868e-e7fbfeb32a87" data-name="path-1" d="M56,50.33a17.79,17.79,0,0,0-12-6.69,15.37,15.37,0,0,0,7.59-13.23,15.59,15.59,0,0,0-.35-3.27A15.45,15.45,0,0,0,31,15.89l-.4.15a15.37,15.37,0,0,0-9.74,12.3,16,16,0,0,0-.16,2.07,15.41,15.41,0,0,0,7.58,13.23,18.16,18.16,0,0,0-12,6.69,8.85,8.85,0,0,0-1.93,5.46v2.59a.75.75,0,0,0,.45.68C15,59.25,23.51,63,36.11,63c13.94,0,21-3.81,21.26-4a.76.76,0,0,0,.38-.66V55.79A8.69,8.69,0,0,0,56,50.33ZM49.6,26.79l-.28.09-.43.12-.68.13-.42.08-.75.1h-.35c-.38,0-.76.05-1.1.05a8.18,8.18,0,0,1-1.19-.06,1.75,1.75,0,0,1-.4,0,3.57,3.57,0,0,1-.75-.11l-.47-.05c-.22-.05-.45-.09-.67-.15l-.49-.15-.63-.2-.47-.18s-.41-.15-.61-.24L39.45,26l-.57-.28-.45-.27-.53-.33-.45-.32A4.1,4.1,0,0,1,37,24.4l-.41-.34-.46-.4-.39-.37-.41-.44-.36-.4a4.25,4.25,0,0,1-.37-.47l-.34-.43c-.1-.14-.22-.33-.34-.51a4.92,4.92,0,0,1-.29-.46c-.09-.17-.21-.35-.3-.53s-.17-.31-.25-.48L32.78,19l-.21-.5-.21-.59-.17-.52-.08-.28a13.94,13.94,0,0,1,17.49,9.7ZM29.89,18a2.79,2.79,0,0,1-.07.4l-.06.26-.23.83a6.15,6.15,0,0,1-.29.82c0,.08-.07.15-.09.23l-.23.56-.15.27c-.08.18-.17.35-.26.51l-.15.26-.31.51-.15.22c-.16.23-.33.45-.5.68s-.36.45-.56.65l-.19.2-.41.41L26,25l-.42.36-.26.2-.46.36-.23.15a5,5,0,0,1-.75.47h-.06l-.71.37-.27.13-.36.17A13.93,13.93,0,0,1,29.89,18Zm-7.76,12.4A13.71,13.71,0,0,1,22.21,29a.91.91,0,0,0,.35-.12l.32-.13c.22-.09.45-.2.66-.3l.23-.11c.3-.15.6-.3.87-.46l.13-.08.69-.45.26-.18.51-.39.27-.23.48-.4.24-.23.5-.5.18-.19a5.23,5.23,0,0,0,.61-.75l.09-.11c.17-.21.33-.43.48-.64l.17-.28.35-.54.17-.3.29-.55.15-.31s.19-.42.27-.63l.11-.26a7.91,7.91,0,0,0,.3-.9.64.64,0,0,0,.06-.18c.06-.22.13-.43.19-.64l0,.09.17.38c.11.26.22.52.34.75l.23.43c.12.23.25.45.38.66l.27.42.41.6.3.41.48.58.31.37.55.56.31.3q.36.33.75.63l.2.17,1,.75.29.18.75.47.4.22.69.35.46.2.67.28.49.17.7.23.49.12.75.17.48.1.84.1.41.05c.43,0,.85.05,1.28.05a9.56,9.56,0,0,0,1.21-.05l.38,0a4.72,4.72,0,0,0,.83-.11l.45-.07.75-.17a3.6,3.6,0,0,0,.44-.12l.25-.06A13.9,13.9,0,0,1,50,30.42a14,14,0,0,1-27.93,0Zm18.24,14.8a4.77,4.77,0,0,1-8.47,0,15.21,15.21,0,0,0,8.46,0ZM56.26,57.92A33.32,33.32,0,0,1,50,60V55.75a.76.76,0,0,0-1.51,0v4.6A62.17,62.17,0,0,1,36.12,61.5a60.15,60.15,0,0,1-11.83-1.17v-4.6a.76.76,0,0,0-1.51,0V60a48.14,48.14,0,0,1-7-2.14V55.79a7.36,7.36,0,0,1,1.61-4.5A16.9,16.9,0,0,1,30.15,45a6.28,6.28,0,0,0,11.93,0,16.55,16.55,0,0,1,12.69,6.29,7.17,7.17,0,0,1,1.51,4.5Z" fill="#fff"/></g><g mask="url(#ae6b2574-bb07-40de-8443-dae085bdaa37)"><g id="bbf241a8-7f4d-48fd-9a12-a94cea9af6ee" data-name="Group"><g id="f3cfce3e-511f-463b-b9c8-8e0bb5356a7e" data-name="04.-color-overrides/1.-brand/blue-900"><rect id="ba3fe758-8235-4515-95f5-fb6aa6210044" data-name="color" x="12" y="15" width="48" height="48" fill="#053361"/></g></g></g></g><g id="aca754e4-fb1a-4107-8b74-b1c18f5be617" data-name="01.-icons/2.-brand/customer-male-copy-2"><g id="f43b45d2-c4b7-42b6-9420-5ba10645df51" data-name="customer-service-male"><path id="adf11b3a-cfab-4513-9853-84f2a2dea32d" data-name="path-3" d="M134.79,15A17.36,17.36,0,0,0,118,28.15a5.77,5.77,0,0,0,3.56,10.77,11.85,11.85,0,0,1-.6-1.42h-.15a4.28,4.28,0,1,1,0-8.55H121a12.17,12.17,0,0,1,.55-1.46,5.49,5.49,0,0,0-.7,0,5.64,5.64,0,0,0-1.08.1,15.75,15.75,0,0,1,30.76,4.72,7.54,7.54,0,0,1-7.5,7.5h-5.18a1.87,1.87,0,0,0-1.72-1.14h-2.26a1.89,1.89,0,0,0,0,3.75h2.26a1.88,1.88,0,0,0,1.72-1.13H143a9,9,0,0,0,9-9A17.25,17.25,0,0,0,134.78,15Zm1.33,25.91h-2.25a.39.39,0,0,1,0-.75h2.25a.39.39,0,0,1,0,.75Zm16.44,10.42a16.21,16.21,0,0,0-10.71-6.12,14.13,14.13,0,0,0,6.75-12,14.52,14.52,0,0,0-.32-3A14.22,14.22,0,0,0,134.46,19a14.4,14.4,0,0,0-4.73.83l-.37.13A14.09,14.09,0,0,0,127.1,45.2a16.53,16.53,0,0,0-10.84,6.13,8.15,8.15,0,0,0-1.76,5v2.37a.73.73,0,0,0,.44.67A50.68,50.68,0,0,0,134.44,63c12.73,0,19.13-3.49,19.43-3.64a.73.73,0,0,0,.38-.65V56.34a8,8,0,0,0-1.67-5Zm-5.93-21.51-.22.08L146,30c-.2.06-.41.1-.61.14l-.38.07a4.74,4.74,0,0,1-.67.08l-.32,0h-1s-.75,0-1.09,0a1,1,0,0,1-.36,0,5.74,5.74,0,0,1-.71-.09l-.41-.09c-.21-.05-.42-.08-.62-.14l-.43-.14-.57-.17-.43-.17-.54-.18-.43-.21-.5-.26-.4-.24-.47-.3-.4-.27-.45-.34-.38-.32a4.33,4.33,0,0,1-.4-.36l-.36-.33-.39-.38-.31-.37-.35-.42-.3-.39-.3-.45-.27-.43-.27-.48-.22-.43s-.17-.34-.23-.51-.15-.3-.2-.46l-.19-.53-.15-.48a.41.41,0,0,0-.06-.22,12.57,12.57,0,0,1,15.74,8.74ZM128.7,21.93a.29.29,0,0,1,0,.13,10.65,10.65,0,0,1-.32,1.2l0,.15c-.12.35-.26.69-.41,1a.8.8,0,0,1-.07.2c-.18.36-.36.7-.57,1.05l-.15.2a10.61,10.61,0,0,1-1.5,1.91l-.15.17a11.17,11.17,0,0,1-.9.75l-.16.13c-.3.22-.61.44-.92.63l-.13.08c-.35.2-.71.39-1.07.56l-.12.05a12.58,12.58,0,0,1,6.52-8.23Zm-6.88,11.25a10.48,10.48,0,0,1,.07-1.25l.28-.11.3-.12.62-.28.24-.11a6.66,6.66,0,0,0,.75-.42l.15-.09.6-.38.24-.19.47-.34.24-.2.43-.39.23-.21.51-.51.09-.1q.3-.32.57-.66l.15-.21c.13-.14.24-.32.37-.48a1.92,1.92,0,0,0,.17-.27c0-.09.21-.31.3-.47l.16-.28.29-.54.12-.23a7.91,7.91,0,0,0,.35-.79.58.58,0,0,1,.06-.17c.08-.22.17-.45.23-.67l.09-.29a2.07,2.07,0,0,1,.1-.33c.15.35.31.68.48,1l.17.3a5.07,5.07,0,0,0,.39.67l.22.36.4.59.28.35.43.53.3.33c.15.17.32.34.48.5l.3.3c.17.17.38.33.56.49l.27.23.86.64h.05c.31.21.63.4,1,.58l.3.17a7.37,7.37,0,0,0,.69.34l.37.17.65.27.43.15a6.76,6.76,0,0,0,.65.2l.45.12.68.15.43.07c.26.06.51.08.75.12l.38,0c.37,0,.75.05,1.16.05a7.53,7.53,0,0,0,1.09-.05l.35,0a4.8,4.8,0,0,0,.75-.09l.39-.07.75-.15.37-.1.19-.05a12.07,12.07,0,0,1,.15,1.9,12.64,12.64,0,0,1-25.28,0Zm16.37,13.6a4.25,4.25,0,0,1-7.45,0,13.76,13.76,0,0,0,3.72.53,14.24,14.24,0,0,0,3.73-.53ZM152.7,58.24a29.2,29.2,0,0,1-5.6,1.86V56.31a.75.75,0,0,0-1.5,0v4.14a56.29,56.29,0,0,1-11.14,1,54.8,54.8,0,0,1-10.69-1V56.3a.75.75,0,0,0-1.5,0v3.81a42.87,42.87,0,0,1-6.28-1.9V56.33a6.71,6.71,0,0,1,1.44-4.08A15.28,15.28,0,0,1,129,46.54a5.76,5.76,0,0,0,10.94,0,15,15,0,0,1,11.45,5.71,6.56,6.56,0,0,1,1.32,4.09Z" fill="#fff"/></g><g mask="url(#b06c6435-e2d5-4848-bcdc-6fc65c9ee72f)"><g id="bf04a1ee-e0ec-4d9b-a2ae-24c0fdf80607" data-name="Group"><g id="a5f8f130-207c-4497-a2c9-2a49b1dcb5bc" data-name="04.-color-overrides/1.-brand/blue-900"><rect id="f76f59c3-e7a8-408e-874b-9bf3dec8610d" data-name="color" x="110" y="15" width="48" height="48" fill="#053361"/></g></g></g></g><g id="a29f3a42-7fec-4c99-b02d-ee2ff31d71a2" data-name="01.-icons/2.-brand/customer-male-copy"><g id="fcb53411-f55a-4e7d-80e1-48ee6b084cb6" data-name="customer-female"><path id="ee184136-2fc0-4ca8-8a3d-d50fc85048e1" data-name="path-5" d="M106,50.33a17.74,17.74,0,0,0-6.12-4.95,5.56,5.56,0,0,0,4.24-4.18.78.78,0,0,0,0-.5c-1.17-2.45-2-7.62-2.45-10.81a16,16,0,0,0-.34-2.75A15.45,15.45,0,0,0,81,15.89l-.4.15a15.37,15.37,0,0,0-9.74,12.3,16,16,0,0,0-.16,2.07v.3c-.22,2.73-.81,7.27-2.26,10a.72.72,0,0,0-.07.54,5.57,5.57,0,0,0,4.11,4.14,18,18,0,0,0-6.25,5,8.85,8.85,0,0,0-1.93,5.46v2.59a.75.75,0,0,0,.45.68C65,59.25,73.51,63,86.11,63c13.94,0,21-3.81,21.26-4a.76.76,0,0,0,.38-.66V55.79A8.69,8.69,0,0,0,106,50.33ZM72.28,29l.3-.12.32-.12c.23-.09.45-.2.66-.3l.23-.11c.3-.15.6-.3.87-.46l.13-.08.69-.45.26-.18.51-.4.27-.22.49-.41.24-.22.49-.5a1.62,1.62,0,0,0,.18-.19,6,6,0,0,0,.62-.75l.09-.11c.16-.21.32-.43.47-.65l.17-.27.35-.54.17-.3.29-.55.15-.32s.19-.41.27-.62l.12-.26c.1-.3.22-.6.3-.9l.06-.18c.06-.23.13-.43.18-.65l0,.1.17.38a7.41,7.41,0,0,0,.35.75l.22.43c.12.23.25.45.38.65l.27.43.41.6.31.41.47.57.32.38.55.55.3.3a9.06,9.06,0,0,0,.75.64l.2.17,1,.75.29.17c.25.17.51.33.75.48l.4.22.7.35.45.2.68.28.48.17.7.22.49.13.75.17.48.09c.28.05.56.08.84.11l.42,0c.42,0,.84.06,1.28.06a7.84,7.84,0,0,0,1.2-.06l.38,0a4.6,4.6,0,0,0,.83-.11l.45-.07c.25-.06.5-.11.75-.18a3.15,3.15,0,0,0,.44-.11l.19,0c0,.45.12,1,.23,1.71v.4a14,14,0,0,1-27.93.35c.08-.75.1-1.38.11-1.78ZM86.12,47.81a4.77,4.77,0,0,1-4.22-2.59,15.15,15.15,0,0,0,4.22.6,15.57,15.57,0,0,0,4.24-.6,4.79,4.79,0,0,1-4.24,2.58ZM84,48.93a5,5,0,0,1-6.23-3.7A21.58,21.58,0,0,1,80.17,45,6.25,6.25,0,0,0,84,48.93ZM92.1,45a17.76,17.76,0,0,1,2.41.26,5,5,0,0,1-6.25,3.67A6.27,6.27,0,0,0,92.1,45Zm4.22-.93h-.1A18.48,18.48,0,0,0,94,43.65,15.42,15.42,0,0,0,100.88,35a30.38,30.38,0,0,0,1.69,6.07c-1,3.29-4.69,3.15-6.25,2.94ZM99.6,26.82l-.28.09-.43.11-.68.15-.42.07-.75.1h-.35c-.38,0-.76.05-1.1.05a9.8,9.8,0,0,1-1.19-.05,1.33,1.33,0,0,1-.4,0,3.57,3.57,0,0,1-.75-.11l-.47-.07L92.11,27l-.49-.15L91,26.61l-.47-.18s-.41-.15-.61-.24L89.45,26l-.57-.28-.45-.27-.53-.33-.45-.32A4.1,4.1,0,0,1,87,24.4l-.41-.34-.46-.4-.39-.37-.41-.44-.36-.4a4.25,4.25,0,0,1-.37-.47l-.34-.43L83.88,21a4.92,4.92,0,0,1-.29-.46c-.09-.17-.21-.35-.3-.53s-.17-.31-.25-.48L82.78,19l-.21-.5-.21-.59-.17-.52-.08-.28a13.94,13.94,0,0,1,17.49,9.7ZM79.89,18a2.79,2.79,0,0,1-.07.4l-.06.26-.23.83a6.15,6.15,0,0,1-.29.82c0,.08-.07.15-.09.23l-.23.56-.15.27c-.08.18-.17.35-.26.51l-.15.26-.31.51-.15.22c-.16.23-.33.45-.5.68s-.36.45-.56.65l-.19.2-.41.41L76,25l-.42.36-.26.2-.46.36-.23.15a5,5,0,0,1-.75.47h-.06l-.71.37-.27.13-.36.17A13.93,13.93,0,0,1,79.89,18ZM69.83,41.12a21.27,21.27,0,0,0,1.71-5.57,15.47,15.47,0,0,0,6.68,8.09,18,18,0,0,0-2.19.41c-1.58.2-5.22.33-6.21-2.92Zm36.42,16.8A33.46,33.46,0,0,1,100,60V55.75a.76.76,0,0,0-1.51,0v4.6A62.17,62.17,0,0,1,86.12,61.5a60.15,60.15,0,0,1-11.83-1.17v-4.6a.76.76,0,0,0-1.51,0V60a48.14,48.14,0,0,1-7-2.14V55.79a7.36,7.36,0,0,1,1.61-4.5,16.59,16.59,0,0,1,9-5.73,6.4,6.4,0,0,0,3.82,4.56,6.62,6.62,0,0,0,2.56.52,6.21,6.21,0,0,0,3.47-1,6.18,6.18,0,0,0,3.46,1,6.68,6.68,0,0,0,2.58-.52A6.39,6.39,0,0,0,96,45.56a16.17,16.17,0,0,1,8.81,5.73,7.17,7.17,0,0,1,1.51,4.5Z" fill="#fff"/></g><g mask="url(#a97f7860-cb73-4b43-9bf5-b9be58bd3cd6)"><g id="b0881b8d-cd5d-4905-abb5-1f42aeac3f41" data-name="Group"><g id="b8c6f2e9-81fe-4411-8b20-8cfa8a57d8f3" data-name="04.-color-overrides/1.-brand/blue-900"><rect id="f782eae6-af1a-4607-b004-ddae6d250547" data-name="color" x="62" y="15" width="48" height="48" fill="#053361"/></g></g></g></g></g></g></g></g><path d="M145.52,39.32l2.18-1.22s0,.27-.54,1.34c-.23.43-.63,1.08-.63,1.08a8.69,8.69,0,0,1-1.1.41,7.19,7.19,0,0,1-1.14.21Z" fill="#053361"/></svg>