<svg id="ef2c4501-c43a-4ff8-84e2-5894d2c441cf" data-name="Layer 1" xmlns="http://www.w3.org/2000/svg" xmlns:xlink="http://www.w3.org/1999/xlink" width="172" height="64" viewBox="0 0 172 64"><defs><mask id="b1ce984f-2df5-4741-9589-fc382d942ea5" x="54" y="0" width="64" height="64" maskUnits="userSpaceOnUse"><g transform="translate(0 0)"><g id="f5a75055-a667-4cc2-9a95-5f755b454828" data-name="mask-3"><path id="a4ea920e-426d-487e-9531-949da209130c" data-name="path-2" d="M103.17,11.26a1.16,1.16,0,0,0-.2-.4L96.91,3.15a1,1,0,0,0-1-.36l-4.45,1-.7-3a1,1,0,0,0-2,.45l.7,3L85,5.31a1,1,0,0,0-.75.76l-2,9.58a.86.86,0,0,0,0,.45L88,41.19A1,1,0,0,0,89,42h.22l19-4.39a1,1,0,0,0,.62-.44,1,1,0,0,0,.13-.76Zm-13.4,28.5-5.53-23.9L86.1,7.11l3.84-.9.46,2a4.35,4.35,0,0,0-1.7,1.54,4.18,4.18,0,0,0-.53,3.2,4.26,4.26,0,0,0,7.77,1.27A4.16,4.16,0,0,0,96.47,11a4.24,4.24,0,0,0-4.08-3.26l-.46-1.94,3.84-.88L101.31,12l5.54,23.89Zm1.1-29.54.45,1.94a1,1,0,0,0,1,.78h.23a1,1,0,0,0,.75-1.2L92.85,9.8a2.28,2.28,0,1,1-2.71,2.66,2.21,2.21,0,0,1,.28-1.7,2.31,2.31,0,0,1,.45-.54ZM101.2,29.45a3.8,3.8,0,0,1-.82,3.22,4.39,4.39,0,0,1-1.5,1l.25,1.09a1,1,0,0,1-.13.76,1,1,0,0,1-.62.44h-.23a1,1,0,0,1-1-.8l-.23-1a15.09,15.09,0,0,1-2.85.24H93.4a1,1,0,1,1,0-2c3.54.1,4.9-.58,5.4-1.16a1.87,1.87,0,0,0,.35-1.6c-.18-1.24-1.34-1.8-3.42-1.68-2.36.15-3.55-.69-4.14-1.42a3.79,3.79,0,0,1-.6-3.47,3.72,3.72,0,0,1,2.7-2.61l-.2-1.08a1,1,0,1,1,2-.45l.3,1.28a15.57,15.57,0,0,1,2.16,0,1,1,0,0,1,.84.55,1,1,0,0,1-1,1.44C94,22,93.25,22.85,93,23.71a1.9,1.9,0,0,0,.2,1.67,3,3,0,0,0,2.47.7c4.5-.27,5.38,2.26,5.54,3.37ZM115,27.36a1,1,0,0,1,0,1.41,1,1,0,0,1-1.4,0L109.76,25a1,1,0,0,1,1.4-1.4Zm-5.24-8.93a1,1,0,0,1,0-1.4l3.84-3.83a1,1,0,0,1,1.31.09,1,1,0,0,1,.09,1.3l-3.83,3.84a1,1,0,0,1-1.4,0ZM118,21a1,1,0,0,1-1,1h-3.93a1,1,0,1,1,0-2H117A1,1,0,0,1,118,21ZM64.3,43.35a3.89,3.89,0,0,0-3.88,3.8,4,4,0,0,0,1.1,2.69,3.73,3.73,0,0,0,2.77,1.27A3.81,3.81,0,0,0,67,49.94a3.87,3.87,0,0,0,1.1-2.67,4,4,0,0,0-3.85-3.9Zm1.85,3.88a1.86,1.86,0,0,1-.56,1.29,1.68,1.68,0,0,1-2.6,0,2.07,2.07,0,0,1-.58-1.35,1.91,1.91,0,0,1,1.87-1.8,2,2,0,0,1,1.85,1.88Zm25.56,3.89a3.74,3.74,0,0,0,2.77-1.28,4,4,0,0,0,1.1-2.69,3.9,3.9,0,0,0-3.86-3.8,4,4,0,0,0-3.85,3.88A3.85,3.85,0,0,0,89,49.94a3.79,3.79,0,0,0,2.7,1.17Zm0-5.79a1.92,1.92,0,0,1,1.88,1.8A2.1,2.1,0,0,1,93,48.49a1.69,1.69,0,0,1-2.6,0,1.9,1.9,0,0,1-.55-1.29,2,2,0,0,1,1.86-1.88ZM79.6,30.63a1,1,0,1,1,0,2H71.2c-1.8,0-2.27.34-2.5,1L67,37.43H81.4a1,1,0,0,1,0,2h-16a1,1,0,0,1-.84-.45,1,1,0,0,1-.07-1l2.3-5.19c.85-2.22,3.22-2.22,4.36-2.22ZM78,52a14.7,14.7,0,0,0,6.64-1.78A1,1,0,1,1,85.56,52a15.33,15.33,0,0,1-15.14,0,1,1,0,0,1-.54-.84,1,1,0,0,1,1.46-.94A14.78,14.78,0,0,0,78,52Zm21.22-6.49a1,1,0,0,0-1.67-.47,1,1,0,0,0-.27,1,5.26,5.26,0,0,1,.1,2.09l-1.14,8.81H59.82l-1.2-8.75a5.6,5.6,0,0,1,1.82-5l1.37-1a1,1,0,0,0-.57-1.79h-3.3c-1,0-1.94-1.44-1.94-2.57,0-.7.63-.94,1.17-.94H58.8a24.9,24.9,0,0,1,3,1.53,1,1,0,0,0,.8.07,1,1,0,0,0,.6-.58l2.54-6.49a3.7,3.7,0,0,1,3.62-2.12H78.9a1,1,0,1,0,0-2H69.4a5.52,5.52,0,0,0-5.48,3.39L61.8,36.14c-2.28-1.23-2.73-1.23-2.94-1.23h-1.7a3,3,0,0,0-3.16,3c0,2.05,1.68,4.44,3.94,4.44h.52a7.45,7.45,0,0,0-1.83,6l1.2,8.75a2,2,0,0,0,1.93,1.78h.65V61a3,3,0,0,0,3,3h1.88a3,3,0,0,0,3-3V58.93H87.83V61a3,3,0,0,0,3,3h1.88a3,3,0,0,0,3-3V58.93h.65a2,2,0,0,0,1.9-1.75l1.22-8.76a7.83,7.83,0,0,0-.24-2.89ZM66.22,61a1,1,0,0,1-1,1H63.35a1,1,0,0,1-1-1v-2h3.78Zm27.42,0a1,1,0,0,1-1,1H90.77a1,1,0,0,1-1-1v-2H93.6Z" fill="#fff" fill-rule="evenodd"/></g></g></mask></defs><g id="a13c5091-ff9d-4117-b512-fc7648e22249" data-name="--About-us-v...who-knows..."><g id="ae759645-d4f2-4076-9e02-4ff9d365c48f" data-name="D about us page2"><g id="b9e9b200-5f1c-45f7-a9b1-f8f5eee5379d" data-name="what-we-do-final"><g id="fde7d353-ac42-4bd7-a842-c644d4f9ee01" data-name="icon-lockup"><rect id="e91f846a-5429-4539-934a-0ac3ef969533" data-name="Rectangle-Copy-7" width="172" height="64" fill="#fff" fill-opacity="0.01" opacity="0.39" style="isolation:isolate"/><g id="bd95f366-5b7e-444c-84d2-ded2a7dcc1da" data-name="01.-icons/2.-brand/car-price-tag"><g id="a436635d-6413-4e80-84af-e3b5cbd3a5ef" data-name="car-price-tag"><path id="a35920bf-3d18-46c4-959e-889d9d6acf75" data-name="path-2" d="M103.17,11.26a1.16,1.16,0,0,0-.2-.4L96.91,3.15a1,1,0,0,0-1-.36l-4.45,1-.7-3a1,1,0,0,0-2,.45l.7,3L85,5.31a1,1,0,0,0-.75.76l-2,9.58a.86.86,0,0,0,0,.45L88,41.19A1,1,0,0,0,89,42h.22l19-4.39a1,1,0,0,0,.62-.44,1,1,0,0,0,.13-.76Zm-13.4,28.5-5.53-23.9L86.1,7.11l3.84-.9.46,2a4.35,4.35,0,0,0-1.7,1.54,4.18,4.18,0,0,0-.53,3.2,4.26,4.26,0,0,0,7.77,1.27A4.16,4.16,0,0,0,96.47,11a4.24,4.24,0,0,0-4.08-3.26l-.46-1.94,3.84-.88L101.31,12l5.54,23.89Zm1.1-29.54.45,1.94a1,1,0,0,0,1,.78h.23a1,1,0,0,0,.75-1.2L92.85,9.8a2.28,2.28,0,1,1-2.71,2.66,2.21,2.21,0,0,1,.28-1.7,2.31,2.31,0,0,1,.45-.54ZM101.2,29.45a3.8,3.8,0,0,1-.82,3.22,4.39,4.39,0,0,1-1.5,1l.25,1.09a1,1,0,0,1-.13.76,1,1,0,0,1-.62.44h-.23a1,1,0,0,1-1-.8l-.23-1a15.09,15.09,0,0,1-2.85.24H93.4a1,1,0,1,1,0-2c3.54.1,4.9-.58,5.4-1.16a1.87,1.87,0,0,0,.35-1.6c-.18-1.24-1.34-1.8-3.42-1.68-2.36.15-3.55-.69-4.14-1.42a3.79,3.79,0,0,1-.6-3.47,3.72,3.72,0,0,1,2.7-2.61l-.2-1.08a1,1,0,1,1,2-.45l.3,1.28a15.57,15.57,0,0,1,2.16,0,1,1,0,0,1,.84.55,1,1,0,0,1-1,1.44C94,22,93.25,22.85,93,23.71a1.9,1.9,0,0,0,.2,1.67,3,3,0,0,0,2.47.7c4.5-.27,5.38,2.26,5.54,3.37ZM115,27.36a1,1,0,0,1,0,1.41,1,1,0,0,1-1.4,0L109.76,25a1,1,0,0,1,1.4-1.4Zm-5.24-8.93a1,1,0,0,1,0-1.4l3.84-3.83a1,1,0,0,1,1.31.09,1,1,0,0,1,.09,1.3l-3.83,3.84a1,1,0,0,1-1.4,0ZM118,21a1,1,0,0,1-1,1h-3.93a1,1,0,1,1,0-2H117A1,1,0,0,1,118,21ZM64.3,43.35a3.89,3.89,0,0,0-3.88,3.8,4,4,0,0,0,1.1,2.69,3.73,3.73,0,0,0,2.77,1.27A3.81,3.81,0,0,0,67,49.94a3.87,3.87,0,0,0,1.1-2.67,4,4,0,0,0-3.85-3.9Zm1.85,3.88a1.86,1.86,0,0,1-.56,1.29,1.68,1.68,0,0,1-2.6,0,2.07,2.07,0,0,1-.58-1.35,1.91,1.91,0,0,1,1.87-1.8,2,2,0,0,1,1.85,1.88Zm25.56,3.89a3.74,3.74,0,0,0,2.77-1.28,4,4,0,0,0,1.1-2.69,3.9,3.9,0,0,0-3.86-3.8,4,4,0,0,0-3.85,3.88A3.85,3.85,0,0,0,89,49.94a3.79,3.79,0,0,0,2.7,1.17Zm0-5.79a1.92,1.92,0,0,1,1.88,1.8A2.1,2.1,0,0,1,93,48.49a1.69,1.69,0,0,1-2.6,0,1.9,1.9,0,0,1-.55-1.29,2,2,0,0,1,1.86-1.88ZM79.6,30.63a1,1,0,1,1,0,2H71.2c-1.8,0-2.27.34-2.5,1L67,37.43H81.4a1,1,0,0,1,0,2h-16a1,1,0,0,1-.84-.45,1,1,0,0,1-.07-1l2.3-5.19c.85-2.22,3.22-2.22,4.36-2.22ZM78,52a14.7,14.7,0,0,0,6.64-1.78A1,1,0,1,1,85.56,52a15.33,15.33,0,0,1-15.14,0,1,1,0,0,1-.54-.84,1,1,0,0,1,1.46-.94A14.78,14.78,0,0,0,78,52Zm21.22-6.49a1,1,0,0,0-1.67-.47,1,1,0,0,0-.27,1,5.26,5.26,0,0,1,.1,2.09l-1.14,8.81H59.82l-1.2-8.75a5.6,5.6,0,0,1,1.82-5l1.37-1a1,1,0,0,0-.57-1.79h-3.3c-1,0-1.94-1.44-1.94-2.57,0-.7.63-.94,1.17-.94H58.8a24.9,24.9,0,0,1,3,1.53,1,1,0,0,0,.8.07,1,1,0,0,0,.6-.58l2.54-6.49a3.7,3.7,0,0,1,3.62-2.12H78.9a1,1,0,1,0,0-2H69.4a5.52,5.52,0,0,0-5.48,3.39L61.8,36.14c-2.28-1.23-2.73-1.23-2.94-1.23h-1.7a3,3,0,0,0-3.16,3c0,2.05,1.68,4.44,3.94,4.44h.52a7.45,7.45,0,0,0-1.83,6l1.2,8.75a2,2,0,0,0,1.93,1.78h.65V61a3,3,0,0,0,3,3h1.88a3,3,0,0,0,3-3V58.93H87.83V61a3,3,0,0,0,3,3h1.88a3,3,0,0,0,3-3V58.93h.65a2,2,0,0,0,1.9-1.75l1.22-8.76a7.83,7.83,0,0,0-.24-2.89ZM66.22,61a1,1,0,0,1-1,1H63.35a1,1,0,0,1-1-1v-2h3.78Zm27.42,0a1,1,0,0,1-1,1H90.77a1,1,0,0,1-1-1v-2H93.6Z" transform="translate(0 0)" fill="#fff"/></g><g mask="url(#b1ce984f-2df5-4741-9589-fc382d942ea5)"><g id="a5f46709-98db-4086-a191-194ad6caea2e" data-name="Group"><g id="f014dd8d-0a9e-4c23-8e66-e7e1a3d7adcd" data-name="04.-color-overrides/1.-brand/blue-900"><rect id="f3d51ba9-544c-4f94-9e20-f0f624b76eae" data-name="color" x="54" width="64" height="64" fill="#053361"/></g></g></g></g></g></g></g></g></svg>