<svg id="b4a633bf-dc0a-4871-95e2-df698408bda6" data-name="Layer 1" xmlns="http://www.w3.org/2000/svg" xmlns:xlink="http://www.w3.org/1999/xlink" width="172" height="64" viewBox="0 0 172 64"><defs><mask id="b37760af-0988-49ba-be18-ffad08b0d217" x="58" y="7" width="56" height="56" maskUnits="userSpaceOnUse"><g id="a6b2a044-97ec-4f6f-90f9-712145a85261" data-name="mask-2"><path id="b0846bcf-b651-4af1-b69a-fa4fd2affed5" data-name="path-1" d="M113.12,58.18h-2.45V30.05a.87.87,0,0,0-.87-.88h-6.3V24.8a.8.8,0,0,0,0-.26.57.57,0,0,0-.11-.16.75.75,0,0,0-.07-.12L87,7.27A.86.86,0,0,0,86.38,7a.89.89,0,0,0-.63.25l-17,17a.86.86,0,0,0-.25.61v4.29H62.2a.88.88,0,0,0-.87.88V58.18H58.88a.88.88,0,1,0,0,1.75h13.5v2.2a.87.87,0,0,0,.87.87h25.5a.87.87,0,0,0,.87-.87v-2.2h13.5a.88.88,0,1,0,0-1.75ZM63.07,35.55h9.31v7.82H63.07Zm11.06-5.5V27.66H97.87V43.41H74.13Zm.43-4.14L86.25,14.23,97.47,25.91Zm25.06,9.62h9.3v7.83h-9.3Zm9.3-1.75h-9.3V30.92h9.3Zm-9.28-4.61L101.75,27v2.17Zm-13.29-20,15.09,15.75-1.82,1.83V26a.87.87,0,0,0-.24-.61l-12.5-13a1,1,0,0,0-.63-.27.85.85,0,0,0-.63.26l-13,13a.83.83,0,0,0-.26.61v.72l-1.81-1.82ZM70.25,27l2.14,2.17H70.25Zm2.16,3.92V33.8H63.07V30.92ZM63.07,58.18V45.12h9.31V58.18Zm18.38,3.07V53h3.67v8.22Zm5.43,0V53h3.66v8.22Zm11,0H92.29V52.16a.88.88,0,0,0-.87-.88H80.58a.88.88,0,0,0-.87.88v9.09H74.13V45.12H97.87Zm1.75-16.13h9.3V58.18h-9.3ZM83.78,39H89.1v1.56H83.78Zm6.8,0v1.56H95.9V39Zm-11-6.69c.33,0,.61.15.65.88h2.45c0-2-1.46-2.67-3.15-2.67a3.17,3.17,0,0,0-3.5,3.5c0,2.14,1.09,3.58,3.5,3.58,1.67,0,3.16-.82,3.16-2.68H80.23c0,.72-.28.87-.63.87-.67,0-.72-.76-.72-1.75s.06-1.73.75-1.73Zm11.62,1v4.23H94V33c0-1.8-.82-2.46-2-2.46a1.86,1.86,0,0,0-1.75,1.22,2,2,0,0,0-3.63,0l-.06-1H83.94v6.74h2.73V33.25c0-.54.23-.75.49-.75s.48.25.48.72v4.23h2.65v-4.2c0-.54.23-.75.5-.75S91.25,32.77,91.25,33.25Z" fill="#fff" fill-rule="evenodd"/></g></mask></defs><g id="e512915b-1457-4ff0-b6cb-a45e81b515d6" data-name="--About-us-v...who-knows..."><g id="b015c459-a20f-40df-8f10-a963b8d9d965" data-name="D about us page2"><g id="f8d28265-304a-4bd0-9222-68a44b0f60e7" data-name="what-we-do-final"><g id="fdf0375d-facc-4a3e-86e2-e92be46b8b6b" data-name="icon-lock-up"><rect id="a59ba086-8a79-4d1f-a9e3-42a29e2b528f" data-name="Rectangle-Copy-8" width="172" height="64" fill="#fff" fill-opacity="0.01" opacity="0.39" style="isolation:isolate"/><g id="a98c83ac-38be-4d92-9934-5be650e36d92" data-name="01.-icons/2.-brand/storefront"><g id="b9d54bc3-6bbd-4ed3-8ec2-3696dccd79e8" data-name="storefront"><path id="a87a5a51-f402-486e-834a-ec846851d0d7" data-name="path-1" d="M113.12,58.18h-2.45V30.05a.87.87,0,0,0-.87-.88h-6.3V24.8a.8.8,0,0,0,0-.26.57.57,0,0,0-.11-.16.75.75,0,0,0-.07-.12L87,7.27A.86.86,0,0,0,86.38,7a.89.89,0,0,0-.63.25l-17,17a.86.86,0,0,0-.25.61v4.29H62.2a.88.88,0,0,0-.87.88V58.18H58.88a.88.88,0,1,0,0,1.75h13.5v2.2a.87.87,0,0,0,.87.87h25.5a.87.87,0,0,0,.87-.87v-2.2h13.5a.88.88,0,1,0,0-1.75ZM63.07,35.55h9.31v7.82H63.07Zm11.06-5.5V27.66H97.87V43.41H74.13Zm.43-4.14L86.25,14.23,97.47,25.91Zm25.06,9.62h9.3v7.83h-9.3Zm9.3-1.75h-9.3V30.92h9.3Zm-9.28-4.61L101.75,27v2.17Zm-13.29-20,15.09,15.75-1.82,1.83V26a.87.87,0,0,0-.24-.61l-12.5-13a1,1,0,0,0-.63-.27.85.85,0,0,0-.63.26l-13,13a.83.83,0,0,0-.26.61v.72l-1.81-1.82ZM70.25,27l2.14,2.17H70.25Zm2.16,3.92V33.8H63.07V30.92ZM63.07,58.18V45.12h9.31V58.18Zm18.38,3.07V53h3.67v8.22Zm5.43,0V53h3.66v8.22Zm11,0H92.29V52.16a.88.88,0,0,0-.87-.88H80.58a.88.88,0,0,0-.87.88v9.09H74.13V45.12H97.87Zm1.75-16.13h9.3V58.18h-9.3ZM83.78,39H89.1v1.56H83.78Zm6.8,0v1.56H95.9V39Zm-11-6.69c.33,0,.61.15.65.88h2.45c0-2-1.46-2.67-3.15-2.67a3.17,3.17,0,0,0-3.5,3.5c0,2.14,1.09,3.58,3.5,3.58,1.67,0,3.16-.82,3.16-2.68H80.23c0,.72-.28.87-.63.87-.67,0-.72-.76-.72-1.75s.06-1.73.75-1.73Zm11.62,1v4.23H94V33c0-1.8-.82-2.46-2-2.46a1.86,1.86,0,0,0-1.75,1.22,2,2,0,0,0-3.63,0l-.06-1H83.94v6.74h2.73V33.25c0-.54.23-.75.49-.75s.48.25.48.72v4.23h2.65v-4.2c0-.54.23-.75.5-.75S91.25,32.77,91.25,33.25Z" fill="#fff"/></g><g mask="url(#b37760af-0988-49ba-be18-ffad08b0d217)"><g id="a245087d-8674-41fa-a366-35708cc15eab" data-name="Group"><g id="a032ae2a-fb7d-46b0-b873-6a0138dbfba1" data-name="04.-color-overrides/1.-brand/blue-900"><rect id="aefee697-d4c0-464d-8845-727428b7fab4" data-name="color" x="58" y="7" width="56" height="56" fill="#053361"/></g></g></g></g></g></g></g></g></svg>