<svg id="afbca3b6-e384-4e20-9b1e-756ae8d1f470" data-name="Layer 1" xmlns="http://www.w3.org/2000/svg" xmlns:xlink="http://www.w3.org/1999/xlink" width="172" height="64" viewBox="0 0 172 64"><defs><mask id="b171b45e-af7e-4067-b7f4-7cb0518fe660" x="54" y="0" width="64" height="64" maskUnits="userSpaceOnUse"><g id="ad4628b6-32c2-4ed3-9475-8a25c072d7c8" data-name="mask-3"><path id="a0107921-860a-4646-833f-cc48aa341aeb" data-name="path-2" d="M118,9.28a1,1,0,0,1-1,1h-4.47a1,1,0,0,1,0-2H117A1,1,0,0,1,118,9.28ZM108.72,0a1,1,0,0,0-1,1V5.47a1,1,0,0,0,2,0V1A1,1,0,0,0,108.72,0Zm4.13,6.57,2.3-2.3a1,1,0,0,0,.31-1,1,1,0,0,0-1.73-.4l-2.3,2.28a1,1,0,1,0,1.42,1.42ZM109.72,17V59.72A4.23,4.23,0,0,1,105.44,64H76.37A4.29,4.29,0,0,1,72,59.72V44.9A16.29,16.29,0,0,0,73,40.7L74,39.3V59.7a2.26,2.26,0,0,0,.7,1.64,2.33,2.33,0,0,0,1.66.66h29.07a2.19,2.19,0,0,0,2.28-2.28V17a5.75,5.75,0,0,0-5.65-5.84H72.28A6.45,6.45,0,0,1,74,15.43v14l-2,.7V15.43a4.46,4.46,0,0,0-1.3-3.12,4,4,0,0,0-3-1.2,4.15,4.15,0,0,0-4,3.4H70a1,1,0,0,1,0,2H62.55a1,1,0,0,1-1-1v-.2a6.22,6.22,0,0,1,6.1-6.2h34.41a7.75,7.75,0,0,1,7.65,7.9ZM94.86,43.13c-1,.7-3.28,1.27-8.43-.06A1,1,0,1,0,85.94,45a26.34,26.34,0,0,0,4.48.82v1.87a1,1,0,1,0,2,0V45.83A6.75,6.75,0,0,0,96,44.75a5.11,5.11,0,0,0,2-4c.16-1.86-.45-5.12-6.34-6.12-1.86-.32-3.12-1-3.6-2.05a3.13,3.13,0,0,1,.26-2.88c1-1.84,3.33-2.06,7.8-.74a1,1,0,0,0,.56-1.91,21.37,21.37,0,0,0-4.33-.9v-2.3a1,1,0,1,0-2,0v2.4a4.86,4.86,0,0,0-3.8,2.54,5.08,5.08,0,0,0-.3,4.7c.55,1.13,1.88,2.6,5.08,3.14s4.86,1.9,4.68,4a3.12,3.12,0,0,1-1.14,2.5ZM81.44,31.37c-.08,3.73-4.7,5.55-6,6-.37.5-1.26,1.7-2.5,3.33a14.42,14.42,0,0,1-7.8,12,1,1,0,0,1-1.36-.41,1,1,0,0,1,.41-1.35A12.43,12.43,0,0,0,71,40.28a1.15,1.15,0,0,1,.2-.53C72.92,37.45,74,36,74,36a1,1,0,0,1,.53-.37c1.35-.4,4.86-1.9,4.9-4.23,0-.4,0-.9-.3-1.1a2.88,2.88,0,0,0-2.1.2l-6.8,2.44-4.14,3.67a1,1,0,0,1-1.32-1.5L69,31.24a1.12,1.12,0,0,1,.33-.2l6.9-2.46c.2-.08,2.42-1,4,0a3,3,0,0,1,1.25,2.8ZM72,25.2H71a5.58,5.58,0,0,0-2.37.57l-4.8,2.34a5.57,5.57,0,0,0-2.1,1.78L54.18,40.62a1,1,0,0,0-.18.57V56.25a1,1,0,0,0,.3.74,1,1,0,0,0,.73.3h0l7.08-.1a8.81,8.81,0,0,0,5.06-1.6L72,52.2V49.76l-6,4.18a6.81,6.81,0,0,1-3.92,1.24l-6.08.1V41.5L63.36,31a3.39,3.39,0,0,1,1.34-1.12l4.83-2.34A3.45,3.45,0,0,1,71,27.2h1Z" fill="#fff" fill-rule="evenodd"/></g></mask></defs><g id="e4cab2e1-a267-45f5-b2d9-16e20c4d873f" data-name="--About-us-v...who-knows..."><g id="a639c9eb-a2ce-45f1-ac10-8d809c6f0ae6" data-name="D about us page2"><g id="a8df7c30-f8e1-457d-b13a-d464ef6ecd51" data-name="what-we-do-final"><g id="b27e4bde-217e-4f6e-bbd9-691981adb05c" data-name="icon-lockup"><rect id="bdc23043-5dec-460d-978f-6c3bcc93a514" data-name="Rectangle-Copy-6" width="172" height="64" fill="#fff" fill-opacity="0.01" opacity="0.39" style="isolation:isolate"/><g id="a86ded47-9832-41eb-9f0c-b7dfce9428be" data-name="01.-icons/2.-brand/offer-in-hand"><g id="a2041c37-a9b6-48b2-8508-3930840ca63c" data-name="offer-in-hand"><path id="a0633a63-fd07-4cd3-af37-3b50eb56650d" data-name="path-2" d="M118,9.28a1,1,0,0,1-1,1h-4.47a1,1,0,0,1,0-2H117A1,1,0,0,1,118,9.28ZM108.72,0a1,1,0,0,0-1,1V5.47a1,1,0,0,0,2,0V1A1,1,0,0,0,108.72,0Zm4.13,6.57,2.3-2.3a1,1,0,0,0,.31-1,1,1,0,0,0-1.73-.4l-2.3,2.28a1,1,0,1,0,1.42,1.42ZM109.72,17V59.72A4.23,4.23,0,0,1,105.44,64H76.37A4.29,4.29,0,0,1,72,59.72V44.9A16.29,16.29,0,0,0,73,40.7L74,39.3V59.7a2.26,2.26,0,0,0,.7,1.64,2.33,2.33,0,0,0,1.66.66h29.07a2.19,2.19,0,0,0,2.28-2.28V17a5.75,5.75,0,0,0-5.65-5.84H72.28A6.45,6.45,0,0,1,74,15.43v14l-2,.7V15.43a4.46,4.46,0,0,0-1.3-3.12,4,4,0,0,0-3-1.2,4.15,4.15,0,0,0-4,3.4H70a1,1,0,0,1,0,2H62.55a1,1,0,0,1-1-1v-.2a6.22,6.22,0,0,1,6.1-6.2h34.41a7.75,7.75,0,0,1,7.65,7.9ZM94.86,43.13c-1,.7-3.28,1.27-8.43-.06A1,1,0,1,0,85.94,45a26.34,26.34,0,0,0,4.48.82v1.87a1,1,0,1,0,2,0V45.83A6.75,6.75,0,0,0,96,44.75a5.11,5.11,0,0,0,2-4c.16-1.86-.45-5.12-6.34-6.12-1.86-.32-3.12-1-3.6-2.05a3.13,3.13,0,0,1,.26-2.88c1-1.84,3.33-2.06,7.8-.74a1,1,0,0,0,.56-1.91,21.37,21.37,0,0,0-4.33-.9v-2.3a1,1,0,1,0-2,0v2.4a4.86,4.86,0,0,0-3.8,2.54,5.08,5.08,0,0,0-.3,4.7c.55,1.13,1.88,2.6,5.08,3.14s4.86,1.9,4.68,4a3.12,3.12,0,0,1-1.14,2.5ZM81.44,31.37c-.08,3.73-4.7,5.55-6,6-.37.5-1.26,1.7-2.5,3.33a14.42,14.42,0,0,1-7.8,12,1,1,0,0,1-1.36-.41,1,1,0,0,1,.41-1.35A12.43,12.43,0,0,0,71,40.28a1.15,1.15,0,0,1,.2-.53C72.92,37.45,74,36,74,36a1,1,0,0,1,.53-.37c1.35-.4,4.86-1.9,4.9-4.23,0-.4,0-.9-.3-1.1a2.88,2.88,0,0,0-2.1.2l-6.8,2.44-4.14,3.67a1,1,0,0,1-1.32-1.5L69,31.24a1.12,1.12,0,0,1,.33-.2l6.9-2.46c.2-.08,2.42-1,4,0a3,3,0,0,1,1.25,2.8ZM72,25.2H71a5.58,5.58,0,0,0-2.37.57l-4.8,2.34a5.57,5.57,0,0,0-2.1,1.78L54.18,40.62a1,1,0,0,0-.18.57V56.25a1,1,0,0,0,.3.74,1,1,0,0,0,.73.3h0l7.08-.1a8.81,8.81,0,0,0,5.06-1.6L72,52.2V49.76l-6,4.18a6.81,6.81,0,0,1-3.92,1.24l-6.08.1V41.5L63.36,31a3.39,3.39,0,0,1,1.34-1.12l4.83-2.34A3.45,3.45,0,0,1,71,27.2h1Z" fill="#fff"/></g><g mask="url(#b171b45e-af7e-4067-b7f4-7cb0518fe660)"><g id="a85076b0-adbb-416e-8c3c-8fad3ed32b88" data-name="Group"><g id="a99423ea-d4ff-4106-a2db-36d8f75faff4" data-name="04.-color-overrides/1.-brand/blue-900"><rect id="ee376762-f7a4-4f00-bc6f-635f527ab03a" data-name="color" x="54" width="64" height="64" fill="#053361"/></g></g></g></g></g></g></g></g></svg>