<svg id="b0c7ea86-873f-407e-8743-94e6f060942f" data-name="Layer 1" xmlns="http://www.w3.org/2000/svg" width="172" height="64" viewBox="0 0 172 64"><g id="bcbac5c5-2b3d-4684-a13a-be42a1b97008" data-name="--About-us-v...who-knows..."><g id="a58e88c9-73cc-47ab-b317-2ca4e97d3da1" data-name="D about us page2"><g id="b830692c-55b4-434b-873f-2da52ff9bb63" data-name="what-we-do-final"><g id="a0f2d7ed-5701-42d0-b451-ea240bb24270" data-name="icon cars bow-lockup"><rect id="ed067ec2-854f-4494-8676-fd510ade35f7" data-name="Rectangle-Copy-2" width="172" height="64" fill="#053361" fill-opacity="0.01" opacity="0.39" style="isolation:isolate"/><g id="eb496199-c36c-4aff-a841-f741c9994d9e" data-name="01.-icons/2.-brand/car-price-tag"><g id="a954e0a1-0d00-4c25-a6d8-5413a1f1fef5" data-name="car-bow"><path id="f09d5cde-4a98-460c-a47f-94cb51cb0e2f" data-name="path-2" d="M104,12.25A7.4,7.4,0,0,0,91.37,7.13L88.8,9.78a5.74,5.74,0,0,0-2.48-.57H85a5.75,5.75,0,0,0-2.48.58l-2.6-2.65a7.38,7.38,0,0,0-12.64,5.12A5.34,5.34,0,0,0,68.74,16a5,5,0,0,0,3.62,1.6h3.17l-5,14.24a1,1,0,0,0,1.2,1.3l5.82-1.42L81.1,36.5a1,1,0,0,0,.8.4H82a1,1,0,0,0,.8-.64l2.85-7.85,2.84,7.83a1,1,0,0,0,.8.65h.13a1,1,0,0,0,.8-.4l3.56-4.84,5.8,1.42a1,1,0,0,0,1-.3,1,1,0,0,0,.19-1L95.6,17.51h3.34A5.26,5.26,0,0,0,104,12.26Zm-19-1h1.3a3.87,3.87,0,0,1,2.13.7,2.42,2.42,0,0,1,.36.27l.2.18c.13.13.26.26.38.4a3.81,3.81,0,0,1,.3.36l.13.2a4.52,4.52,0,0,1,.56,1.25v.15a3.41,3.41,0,0,1,.1.64,1,1,0,0,1-.23.58l-.1.12a5.92,5.92,0,0,1-3.86,1.12H85a5.92,5.92,0,0,1-3.86-1.12L81,16a.91.91,0,0,1-.24-.58,3.4,3.4,0,0,1,.08-.64v-.17a3.85,3.85,0,0,1,.2-.57c0-.07.06-.15.1-.23s.13-.25.2-.38.16-.24.25-.35V13a4.93,4.93,0,0,1,1.16-1.07A3.9,3.9,0,0,1,85,11.2ZM70.2,14.56a3.35,3.35,0,0,1-.92-2.31,5.29,5.29,0,0,1,3.36-4.93,5.65,5.65,0,0,1,2.07-.4,5.23,5.23,0,0,1,3.8,1.6l2.34,2.42a7.39,7.39,0,0,0-1,1.26l-3.47-1.53a1,1,0,0,0-.78,0,1,1,0,0,0-.55.54,1,1,0,0,0,.5,1.3L79,14v.18a2.29,2.29,0,0,1-.07.36v.2a5.61,5.61,0,0,0,0,.58v.24H72.5a3,3,0,0,1-2.3-1ZM81.55,33.82,78.72,30a1,1,0,0,0-1-.38L73,30.72l4.64-13.13h2.2a5.86,5.86,0,0,0,2.36,1.22,1.13,1.13,0,0,0,0,.26l2.34,6.45Zm12-16,4.7,12.91L93.6,29.58a1,1,0,0,0-1,.38l-2.83,3.87L84.4,19.17h1.93a8,8,0,0,0,5.13-1.6h2a.7.7,0,0,0,.08.2Zm-1-2.17v-1a1,1,0,0,0-.07-.37v-.18l3.46-1.53A1.05,1.05,0,0,0,95,10.67L91.5,12.2a7.1,7.1,0,0,0-1-1.26l2.3-2.4a5.38,5.38,0,0,1,9.2,3.71,3.24,3.24,0,0,1-3.1,3.28Zm-25,21.18a4.9,4.9,0,0,0-4.86,4.78A5.15,5.15,0,0,0,64.06,45a4.62,4.62,0,0,0,6.94.06,4.94,4.94,0,0,0,1.4-3.37,5,5,0,0,0-4.88-4.9Zm2,6.9a2.78,2.78,0,0,1-2,.9,2.71,2.71,0,0,1-2-.95,3.19,3.19,0,0,1-.86-2.07,2.9,2.9,0,0,1,2.86-2.77,2.86,2.86,0,0,1,2,4.9Zm35,2.9A4.68,4.68,0,0,0,108,45a5.15,5.15,0,0,0,1.4-3.42,4.9,4.9,0,0,0-4.87-4.77,5,5,0,0,0-4.86,4.9A4.93,4.93,0,0,0,101,45.09a4.75,4.75,0,0,0,3.48,1.52Zm0-7.8a2.9,2.9,0,0,1,2.86,2.78,3.14,3.14,0,0,1-.86,2.07,2.75,2.75,0,0,1-2,.94,2.78,2.78,0,0,1-2-.9,2.86,2.86,0,0,1,2-4.9Zm-28.95,7.7a1,1,0,0,1,1.35-.42A20.15,20.15,0,0,0,86,48.55a20.16,20.16,0,0,0,9.1-2.45,1,1,0,1,1,.9,1.79,22.27,22.27,0,0,1-10,2.66,22.27,22.27,0,0,1-10-2.66,1.06,1.06,0,0,1-.52-.58,1,1,0,0,1,0-.78ZM118,29.05a3.6,3.6,0,0,0-3.6-3.64h-2.6c-.22,0-.84,0-4.1,1.77l-2.86-8.28a5,5,0,0,0-4.72-3.4H97a1,1,0,0,0,0,2h3a3,3,0,0,1,2.88,2l3.24,9.42a1,1,0,0,0,1.44.55,38.57,38.57,0,0,1,4.24-2.06h2.6a1.65,1.65,0,0,1,1.16.52,1.61,1.61,0,0,1,.44,1.18,3.69,3.69,0,0,1-3.67,3.68H108.6a1,1,0,0,0-.6,1.82l1.87,1.3A8,8,0,0,1,112.45,43l-1.62,11.81a.4.4,0,0,1-.25.33H61.4a.4.4,0,0,1-.25-.33L59.53,43a7.94,7.94,0,0,1,2.57-7.06l1.9-1.3a1,1,0,0,0,.37-1.13,1,1,0,0,0-1-.7H59a3,3,0,0,1-3-3V29a1.6,1.6,0,0,1,1.6-1.59h2.53a33.42,33.42,0,0,1,4.24,2.1,1,1,0,0,0,.85.07,1,1,0,0,0,.6-.6L69,19.61a3,3,0,0,1,2.9-2h2.16a1,1,0,0,0,0-2H71.93a5,5,0,0,0-4.8,3.4l-2.83,8.2c-3.3-1.8-3.88-1.8-4.1-1.8H57.6A3.6,3.6,0,0,0,54,29v.78a5,5,0,0,0,5,5h1.43a9.77,9.77,0,0,0-2.88,8.48l1.62,11.78a2.35,2.35,0,0,0,2.23,2h1.23v3.8a3,3,0,0,0,3,3h3.78a3,3,0,0,0,3-3v-3.8h27.2v3.8a3,3,0,0,0,3,3h3.77a3,3,0,0,0,3-3v-3.8h1.23a2.36,2.36,0,0,0,2.23-2.05l1.62-11.81a9.77,9.77,0,0,0-2.88-8.48h.76A5.7,5.7,0,0,0,118,29ZM70.4,60.93a1,1,0,0,1-1,1H65.63a1,1,0,0,1-1-1v-3.8h5.78Zm37,0a1,1,0,0,1-1,1h-3.8a1,1,0,0,1-1-1v-3.8h5.77Z" fill="#053361"/></g></g></g></g></g></g></svg>